<?xml version="1.0" encoding="UTF-8" standalone="no"?>
<!DOCTYPE svg PUBLIC "-//W3C//DTD SVG 1.1//EN" "http://www.w3.org/Graphics/SVG/1.1/DTD/svg11.dtd">
<svg width="100%" height="100%" viewBox="0 0 366 332" version="1.1" xmlns="http://www.w3.org/2000/svg" xmlns:xlink="http://www.w3.org/1999/xlink" xml:space="preserve" xmlns:serif="http://www.serif.com/" style="fill-rule:evenodd;clip-rule:evenodd;stroke-linejoin:bevel;stroke-miterlimit:2.4142;">
    <g transform="matrix(-1,0,0,1,365.476,0)">
        <path d="M143.46,186.88L138.568,207.32L135.065,214.326L131.56,223.086L127.327,233.162L119.734,240.097L112.435,247.104L106.229,253.016L108.274,263.532L111.12,272.582L113.603,276.38L121.487,278.788L125.647,281.636L128.057,287.256L127.036,290.614L128.422,293.462L127.765,297.695L122.873,299.739L120.392,302.876L116.305,304.266L109.37,303.245L101.704,298.642L98.93,292.072L96.521,284.702L93.017,280.175L90.901,276.013L87.031,262.436L84.33,252.29L84.039,249.149L87.395,242.213L91.265,235.936L92.286,231.704L91.557,224.111L94.331,216.083L143.454,186.873L143.46,186.88Z" style="fill:url(#_Linear1);stroke:black;stroke-width:0.5px;"/>
    </g>
    <g transform="matrix(-1,0,0,1,365.476,0)">
        <path d="M127.19,290.25L125.219,286.233L120.621,283.168L116.385,282" style="fill:none;fill-rule:nonzero;stroke:black;stroke-width:0.5px;"/>
    </g>
    <g transform="matrix(-1,0,0,1,365.476,0)">
        <path d="M122.37,299.52L121.715,294.486L119.525,290.617L112.444,287.841" style="fill:none;fill-rule:nonzero;stroke:black;stroke-width:0.5px;"/>
    </g>
    <g transform="matrix(-1,0,0,1,365.476,0)">
        <path d="M139.08,201.84L136.599,208.193L132.876,217.247L131.78,219.873L130.392,219.361L127.253,221.116L124.041,226.883L120.756,228.487L115.573,228.926L109.951,226.297L106.011,227.611L96.74,241.845L92.141,248.05L91.264,245.861L94.258,239.291L93.965,234.693L93.308,231.992L92.943,224.035L93.821,215.274L137.4,193.301L139.07,201.851L139.08,201.84Z" style="fill:url(#_Linear2);"/>
    </g>
    <g transform="matrix(-1,0,0,1,365.476,0)">
        <path d="M105.51,254.84L103.466,257.323L102.151,260.313L103.173,265.572L104.048,272.361L103.027,279.003L104.779,287.471L108.137,285.209L109.89,285.355L111.276,282.143L111.35,279.588L108.576,272.578L106.97,264.474L105.5,254.824L105.51,254.84Z" style="fill:url(#_Linear3);"/>
    </g>
    <g transform="matrix(-1,0,0,1,365.476,0)">
        <path d="M105.87,253.6L101.052,257.47L98.935,261.264" style="fill:none;fill-rule:nonzero;stroke:black;stroke-width:0.5px;"/>
    </g>
    <g transform="matrix(-1,0,0,1,365.476,0)">
        <path d="M48.93,216.37L44.916,227.832L40.243,237.25L36.229,243.234L32.579,247.614L29,250.764L24.766,254.633L22.065,257.334L21.408,260.035L20.752,264.051L21.408,288.214L23.453,315.807L24.109,319.165L25.497,321.134L30.826,325.878L38.199,329.895L42.944,330.552L44.916,331.281L47.544,329.895L48.273,327.851L50.9,327.851L55.647,327.194L58.419,325.879L59.661,323.836L60.319,322.524L57.691,316.464L58.42,315.15L59.078,314.421L59.078,312.377L56.304,309.09L53.676,306.389L49.589,305.002L44.918,303.688L43.53,303.031L43.53,300.987L42.217,286.899L42.217,279.525L44.187,273.612L47.545,269.45L52.947,263.394L61.705,256.677L71.781,249.231L78.496,243.243L83.898,235.873L91.271,224.482L93.972,219.738L108.719,211.052L114.777,208.351L116.091,207.622L118.135,203.677L120.763,204.992L121.493,206.307L125.435,201.634L126.09,205.65L132.15,200.395L136.167,199.009L136.167,202.292L144.27,199.667L144.926,202.95L150.986,202.95L158.431,204.993L169.746,210.324L185.806,215.726L200.626,219.08L215.298,220.471L232.161,219.739L236.833,225.069L246.906,280.183L246.833,292.738L252.966,307.048L259.61,317.123L265.741,325.88L271.07,328.581L277.787,329.896L287.203,329.896L288.445,328.581L289.175,325.88L295.889,325.88L297.933,323.837L298.371,323.472L299.101,321.065L297.933,317.778L298.663,316.466L299.904,314.423L299.904,313.108L298.954,308.728L295.889,304.347L292.604,303.033L289.903,303.033L281.8,302.304L279.756,301.717L277.785,299.603L275.084,296.026L272.383,291.571L271.726,288.87L271.069,283.543L271.726,263.397L275.084,266.098L279.172,272.154L283.114,282.229L285.815,290.918L288.443,296.244L290.559,299.016L294.502,301.717L298.662,304.347L305.962,305.004L310.706,305.004L312.02,303.69L312.678,302.304L312.678,300.989L315.452,300.989L318.737,299.603L320.78,298.363L322.093,296.973L322.75,295.586L322.75,293.543L322.604,290.842L322.75,289.602L322.75,288.216L322.093,283.542L322.093,281.57L320.049,280.183L317.421,278.14L312.019,276.167L309.319,276.167L306.618,275.438L304.574,274.198L302.603,270.107L297.93,253.976L297.93,248.574L302.603,224.482L308.003,204.335L312.019,195.574L315.452,188.203L317.422,180.828L318.737,172.067L319.392,142.65L318.079,127.174L314.646,111.258L313.26,104.397L303.405,86.804L104.775,157.614L56.303,202.289L48.935,216.359L48.93,216.37Z" style="fill:url(#_Linear4);stroke:black;stroke-width:0.5px;"/>
    </g>
    <g transform="matrix(-1,0,0,1,365.476,0)">
        <path d="M297.72,316.46L295.163,310.325L291.66,309.304L281.731,307.771" style="fill:none;fill-rule:nonzero;stroke:black;stroke-width:0.5px;"/>
    </g>
    <g transform="matrix(-1,0,0,1,365.476,0)">
        <path d="M288.95,326.02L288.22,320.253L285.081,315.509L277.415,313.247" style="fill:none;fill-rule:nonzero;stroke:black;stroke-width:0.5px;"/>
    </g>
    <g transform="matrix(-1,0,0,1,365.476,0)">
        <path d="M90.979,220.46L76.378,241.7L59.954,255.134L51.34,261.34L47.544,266.085L42.433,275.064L41.631,273.895L40.17,263.602L42.143,262.433L44.624,262.726L49.078,261.776L68.861,245.57L73.606,239.95L79.082,226.592L80.761,225.352L87.549,219.875L90.979,220.475L90.979,220.46Z" style="fill:url(#_Linear5);"/>
    </g>
    <g transform="matrix(-1,0,0,1,365.476,0)">
        <path d="M51.558,229.51L48.857,239.44L43.675,247.397L34.623,256.668L29,260.978L29.366,258.134L38.929,248.058L43.09,242.146L46.886,234.847L51.558,229.507L51.558,229.51Z" style="fill:url(#_Linear6);"/>
    </g>
    <g transform="matrix(-1,0,0,1,365.476,0)">
        <path d="M57.544,316.89L57.033,313.753L53.237,311.487L46.666,308.35" style="fill:none;fill-rule:nonzero;stroke:black;stroke-width:0.5px;"/>
    </g>
    <g transform="matrix(-1,0,0,1,365.476,0)">
        <path d="M48.054,327.99L48.929,324.778L46.374,317.626L38.928,313.099" style="fill:none;fill-rule:nonzero;stroke:black;stroke-width:0.5px;"/>
    </g>
    <g transform="matrix(-1,0,0,1,365.476,0)">
        <path d="M40.973,283.17L41.848,307.622L39.731,309.959L35.424,312.003L37.834,304.339L39.513,300.034L40.973,283.164L40.973,283.17Z" style="fill:url(#_Linear7);"/>
    </g>
    <g transform="matrix(-1,0,0,1,365.476,0)">
        <path d="M52.506,103.59L43.527,94.905L36.957,86.875L29.877,76.655L29.877,80.231L26.519,77.457L20.971,68.696L18.125,60.084L14.984,47.818L5.348,63.073L14.693,91.032L21.264,99.72L25.862,105.049L37.323,113.37L52.506,103.59Z" style="fill:url(#_Linear8);stroke:black;stroke-width:0.5px;"/>
    </g>
    <g transform="matrix(-1,0,0,1,365.476,0)">
        <path d="M161.72,185.71L149.163,178.411L144.638,177.753L137.337,179.068L131.717,183.666L124.489,187.171L148.068,133.953L234.719,148.845L225.01,198.265L209.243,197.9L161.723,185.73L161.72,185.71Z" style="fill:url(#_Linear9);stroke:black;stroke-width:0.5px;"/>
    </g>
    <g transform="matrix(-1,0,0,1,365.476,0)">
        <path d="M83.75,140.89L80.685,136.656L85.212,124.903L57.69,106.063L49.807,100.441L45.207,96.574L41.046,98.691L34.769,96.574L31.628,100.077L29.511,100.077L25.35,97.303L25.57,104.822L33.673,111.613L43.453,118.255L59.806,130.812L68.127,136.652L71.632,142.272L73.311,150.741L83.75,140.871L83.75,140.89Z" style="fill:url(#_Linear10);stroke:black;stroke-width:0.5px;"/>
    </g>
    <g transform="matrix(-1,0,0,1,365.476,0)">
        <path d="M16.152,52.926L15.714,41.391L15.641,31.755L14.84,26.72L13.818,28.179L12.941,23.799L10.678,22.266L8.123,25.478L5.349,34.676L4.11,41.465L4.255,47.013L4.255,50.443L1.483,48.035L2.578,52.926L3.671,58.766L0.241,56.576L2.578,63.584L6.227,73.804L10.023,81.907L13.6,88.477L14.986,91.323L14.184,85.483L14.695,82.564L12.068,72.198L11.775,62.709L12.796,64.022L13.089,55.117L16.152,52.926Z" style="fill:url(#_Linear11);stroke:black;stroke-width:0.5px;"/>
    </g>
    <g transform="matrix(-1,0,0,1,365.476,0)">
        <path d="M119.74,117.39L107.185,120.235L95.066,120.893L83.607,119.214L76.963,112.499L77.694,118.119L71.852,114.251L68.713,109.724L67.691,112.863L61.705,108.63L66.305,115.638L68.422,120.53L70.756,120.894L73.823,126.807L76.669,128.486L81.196,127.828L82.218,129.654L79.079,133.814L80.174,141.042L92.948,204.332L96.818,206.597L99.666,206.086L104.337,203.017L108.279,195.646L107.913,202.359L111.783,198.858L114.192,192.581L113.826,199.587L120.396,195.06L127.769,187.69L135.507,180.755L138.208,174.842L143.026,169.587L147.55,165.861L148.939,158.562L145.507,147.394L142.004,139.728L119.754,117.388L119.74,117.39Z" style="fill:url(#_Linear12);stroke:black;stroke-width:0.5px;"/>
    </g>
    <g transform="matrix(-1,0,0,1,365.476,0)">
        <path d="M95.723,126.14L92.291,130.303L82.802,136.289L76.962,141.836L69.734,150.232L62.726,161.034L59.223,171.693L56.813,187.682L56.813,195.417L51.924,204.835L49.076,216.736L54.04,219.069L62.726,216.004L71.414,216.368L81.123,213.814L83.897,208.998L92.584,207.901L96.818,206.515L98.861,201.699L100.614,196.808L99.226,191.552L101.271,185.928L109.666,186.368L113.169,184.324L117.989,178.411L117.331,184.981L121.055,179.725L123.535,171.693L128.791,165.197L127.696,154.393L120.688,150.597L110.323,154.758L104.41,153.663L104.41,142.932L101.709,131.326L96.454,131.326L95.742,126.166L95.723,126.14Z" style="fill:url(#_Linear13);stroke:black;stroke-width:0.5px;"/>
    </g>
    <g transform="matrix(-1,0,0,1,365.476,0)">
        <path d="M239.97,105.41L232.377,107.746L223.107,109.352L218.143,110.081L212.01,110.958L205.585,110.592L182.08,108.037L167.917,108.183L152.368,110.08L123.096,116.65L114.191,118.693L144.778,152.054L145.727,146.945L147.479,143.66L155.947,139.426L160.983,139.79L165.509,140.665L167.262,141.98L165.509,144.243L160.838,150.374L160.399,154.097L159.086,155.703L155.29,158.477L154.122,161.471L154.56,164.757L158.502,166.875L168.211,168.843L171.13,170.451L173.103,173.152L174.926,174.32L180.839,174.32L185.075,173.152L187.63,168.114L190.842,167.385L194.491,168.696L197.556,168.407L198.504,166.434L198.066,162.42L200.987,158.331L205.294,156.361L209.675,156.361L211.792,158.771L214.931,160.157L218.873,158.771L221.501,154.608L224.347,153.295L228.873,153.806L228.727,156.58L226.61,158.55L224.787,162.711L223.618,170.451L222.304,177.604L220.698,182.202L217.34,184.614L214.421,186.364L212.669,188.918L212.669,191.837L211.356,193.881L208.289,193.298L197.121,188.846L192.813,188.846L189.164,188.478L173.251,182.201L166.898,179.793L163.322,180.158L162.153,180.744L156.533,180.376L150.182,178.99L158.43,184.392L160.985,188.555L164.052,190.67L168.285,197.094L172.3,201.403L176.607,201.549L179.017,200.234L183.031,198.848L179.892,198.337L180.476,196.436L183.031,195.125L188.36,195.125L194.713,196.582L202.232,199.065L211.064,201.548L217.708,202.205L224.277,202.494L230.119,201.326L238.732,197.678L246.105,110.954L239.955,105.444L239.97,105.41Z" style="fill:url(#_Linear14);stroke:black;stroke-width:0.5px;"/>
    </g>
    <g transform="matrix(-1,0,0,1,365.476,0)">
        <path d="M278.88,128.77L278.15,136L276.471,144.834L270.485,147.826L257.564,152.353L256.615,155.856L257.346,163.229L252.09,165.856L250.628,174.252L253.84,186.078L261.36,187.832L263.55,193.745L261.069,209.805L253.112,215.718L244.498,220.606L246.178,226.887L254.866,233.164L256.616,236.958L257.565,244.258L260.777,250.17L260.777,256.158L262.165,264.186L259.317,269.735L259.755,275.355L258.369,282.293L253.404,286.087L251.652,291.707L251.652,300.032L246.834,293.021L244.717,279.516L242.674,264.478L239.244,249.147L236.47,233.163L232.236,219.583L233.038,213.962L233.987,201.114L231.215,189.142L233.038,182.646L236.471,172.792L236.835,163.52L235.739,155.49L239.536,149.211L239.536,138.116L234.353,133.518L230.484,131.108L232.6,124.538L233.696,116.144L236.835,110.595L240.267,103.149L278.877,128.789L278.88,128.77Z" style="fill:url(#_Linear15);stroke:black;stroke-width:0.5px;"/>
    </g>
    <g transform="matrix(-1,0,0,1,365.476,0)">
        <path d="M348.45,94.391L346.991,97.383L336.698,105.778L330.858,107.604L327.5,97.237L347.138,85.411L348.448,94.385L348.45,94.391Z" style="fill:url(#_Linear16);stroke:black;stroke-width:0.5px;"/>
    </g>
    <g transform="matrix(-1,0,0,1,365.476,0)">
        <path d="M295.01,4.892L307.711,3.359L315.522,3.943L320.195,3.505L323.48,2.046L321.728,4.527L320.486,5.695L323.698,6.352L326.765,5.622L324.135,8.032L328.078,11.755L331.217,15.769L332.165,21.462L332.749,31.611L335.816,46.503L334.575,62.927L291.795,6.353L295.005,4.892L295.01,4.892Z" style="fill:url(#_Linear17);stroke:black;stroke-width:0.5px;"/>
    </g>
    <g transform="matrix(-1,0,0,1,365.476,0)">
        <path d="M329.4,108.19L317.938,108.482L307.134,103.883L297.425,96.584L289.104,94.32L286.11,98.772L288.958,101.913L291.806,108.19L292.608,122.498L242.018,61.835L288.228,43.147L316.48,68.041L329.39,108.188L329.4,108.19Z" style="fill:url(#_Linear18);stroke:black;stroke-width:0.5px;"/>
    </g>
    <g transform="matrix(-1,0,0,1,365.476,0)">
        <path d="M333.63,64.241L337.426,57.233L338.081,49.203L335.38,38.105L332.168,30.441L330.417,38.105L333.63,43.654L333.921,48.472L334.287,56.868L333.191,60.371L333.631,64.241L333.63,64.241Z" style="fill:url(#_Linear19);stroke:black;stroke-width:0.5px;"/>
    </g>
    <g transform="matrix(-1,0,0,1,365.476,0)">
        <path d="M331.8,66.942L330.779,56.869L326.252,48.181L324.866,41.902L321.006,30.442L311.663,17.812L307.137,13.36L309.254,9.855L303.634,9.417L288.594,35.261L291.149,44.312L322.831,68.402L331.811,66.942L331.8,66.942Z" style="fill:url(#_Linear20);stroke:black;stroke-width:0.5px;"/>
    </g>
    <g transform="matrix(-1,0,0,1,365.476,0)">
        <path d="M350.86,81.98L350.494,89.644L345.97,93.88L341.225,93.88L338.377,99.062L336.406,103.587L324.799,103.66L319.179,84.462L325.092,70.081L341.152,68.038L350.872,81.98L350.86,81.98Z" style="fill:url(#_Linear21);stroke:black;stroke-width:0.5px;"/>
    </g>
    <g transform="matrix(-1,0,0,1,365.476,0)">
        <path d="M257.56,62.125L259.312,69.133L261.065,73.585L263.546,77.892L269.825,86.872L275.371,92.419L281.577,96.289L286.469,101.911L287.856,106.072L289.388,108.846L289.388,108.48L291.798,108.188L294.206,115.05L293.842,122.789L290.776,129.724L283.986,133.664L278.293,134.759L274.351,131.476L271.212,131.84L266.394,125.196L263.109,125.196L251.283,116.509L248.949,115.414L242.305,108.479L237.851,107.75L234.348,97.31L232.595,88.258L230.115,87.894L233.327,85.12L234.348,77.892L233.691,70.446L234.712,66.943L230.843,68.693L234.712,64.241L232.595,63.22L237.851,59.424L242.651,53L247.542,39.13L257.542,62.125L257.56,62.125Z" style="fill:url(#_Linear22);stroke:black;stroke-width:0.5px;"/>
    </g>
    <g transform="matrix(-1,0,0,1,365.476,0)">
        <path d="M317.5,71.834L304.797,59.715L294.427,48.619L268.22,29.274L259.897,25.842L255.81,26.864L252.087,30.88L246.247,41.611L243.326,48.472L243.546,54.385L257.854,63.437L258.292,60.445L259.68,63.657L259.898,61.467L261.942,63.437L262.819,67.379L264.352,72.417L267.928,79.352L274.718,88.038L279.536,93.369L283.476,96.725L287.345,99.937L288.367,97.602L293.038,95.339L287.636,93.951L283.038,91.981L277.271,89.426L273.986,83.659L272.526,79.352L275.739,75.556L278.439,78.402L283.986,80.008L290.337,79.497L292.31,79.059L292.601,81.323L288.952,83.293L282.892,81.176L280.411,79.717L285.083,84.755L288.806,86.872L295.012,85.995L297.567,81.397L297.129,77.308L299.099,71.25L301.363,76.505L301.217,81.907L304.138,77.6L304.576,71.978L306.984,69.277L315.013,78.111L317.493,71.834L317.5,71.834Z" style="fill:url(#_Linear23);stroke:black;stroke-width:0.5px;"/>
    </g>
    <g transform="matrix(-1,0,0,1,365.476,0)">
        <path d="M272.6,29.785L301.654,54.459L317.86,60.883L322.314,56.503L322.168,49.422L326.328,53L325.162,49.422L321.292,44.166L319.103,35.187L317.35,31.829L318.372,31.465L321.437,38.4L322.898,41.539L326.037,47.816L323.263,41.612L320.198,31.683L313.847,25.625L305.233,15.989L302.166,13.725L305.16,12.266L301.364,10.514L294.794,6.791L294.648,2.995L296.253,0.294L292.166,3.142L292.02,0.148L288.517,5.04L287.639,7.45L287.348,2.85L285.452,6.499L285.306,8.689L278.077,10.368L266.472,16.135L263.259,18.909L272.649,29.785L272.6,29.785Z" style="fill:url(#_Linear24);stroke:black;stroke-width:0.5px;"/>
    </g>
    <g transform="matrix(-1,0,0,1,365.476,0)">
        <path d="M263.77,33.945L260.046,34.894L256.397,38.252L257.93,38.983L256.541,41.611L252.674,43.217L254.498,43.801L252.308,47.671L255.813,48.255L259.682,46.867L263.77,43.364L264.134,39.712L267.055,38.691L264.718,36.867L263.788,33.945L263.77,33.945Z" style="fill:url(#_Linear25);stroke:black;stroke-width:0.5px;"/>
    </g>
    <g transform="matrix(-1,0,0,1,365.476,0)">
        <path d="M285.23,58.693L284.499,59.788L283.624,61.54L281.872,61.686L280.923,62.708L278.368,64.094L276.105,65.92L274.863,68.181L273.331,68.839L272.235,67.817L270.849,69.35L269.023,70.08L268.439,68.181L268.805,65.335L267.71,62.852L268.585,60.006L267.417,59.933L271.797,57.96L275.155,57.305L278.585,54.093L276.324,53.289L279.243,52.925L276.324,51.319L281.141,51.683L284.28,51.903L288.004,53.216L292.091,55.262L293.844,56.795L294.135,58.692L291.727,60.662L287.858,58.034L286.032,56.284L283.477,55.991L280.996,57.233L279.171,59.423L282.31,57.817L285.084,57.817L285.244,58.693L285.23,58.693Z" style="fill:url(#_Linear26);stroke:black;stroke-width:0.5px;"/>
    </g>
    <g transform="matrix(-1,0,0,1,365.476,0)">
        <path d="M306.33,36.355L306.841,33.798L307.643,31.681L310.271,29.784L313.849,28.835L315.527,28.178L313.703,25.841L309.25,23.724L304.796,24.381L299.103,26.718L299.834,24.745L296.328,27.519L294.796,25.476L293.774,30.294L295.671,35.332L296.548,37.593L300.563,40.294L304.943,43.945L305.747,42.85L305.163,40.805L303.265,38.835L301.878,35.185L301.074,36.864L298.957,33.797L300.272,29.93L304.432,29.273L303.921,34.091L304.796,36.281L306.326,36.355L306.33,36.355Z" style="fill:url(#_Linear27);stroke:black;stroke-width:0.5px;"/>
    </g>
    <g transform="matrix(-1,0,0,1,365.476,0)">
        <path d="M334.87,105.05L330.125,107.896L325.234,109.064L320.416,108.773L317.935,108.189L320.636,107.385L320.782,104.102L318.739,100.232L319.687,93.662L316.693,88.991L316.402,85.706L313.337,87.53L314.796,84.391L312.46,84.464L315.381,81.325L315.16,76.142L313.774,71.031L310.489,68.403L312.021,67.673L302.021,56.798L292.75,48.11L279.976,38.692L272.163,32.708L266.981,30.809L268.44,30.079L264.864,28.473L259.169,28.912L261.068,27.013L258.003,26.795L255.155,28.108L252.09,30.809L256.25,24.385L259.682,20.516L264.061,17.16L266.982,16.065L264.865,18.182L266.033,20.517L269.025,23.218L268.879,21.465L271.069,23.218L278.077,31.103L285.67,37.527L296.109,46.87L309.833,56.579L314.14,58.842L313.192,57.016L317.132,60.083L316.841,57.382L318.374,59.279L341.004,66.287L343.559,68.039L347.721,72.273L350.933,76.798L353.561,82.64L353.341,89.208L352.246,93.735L346.186,94.392L342.61,93.953L347.281,92.494L349.838,90.377L350.493,86.654L348.597,86.874L350.493,83.369L349.034,83.807L348.449,81.326L347.281,79.062L344.946,75.85L341.661,72.785L342.318,71.106L338.96,72.639L338.522,70.522L336.624,72.639L332.609,72.275L329.761,70.816L326.84,73.15L327.352,77.384L325.965,77.968L326.84,78.845L323.484,81.91L324.213,82.494L322.462,87.166L322.9,91.253L324.506,94.101L326.84,95.56L324.579,96.728L327.059,98.48L328.301,103.225L329.249,101.255L332.752,103.225L336.548,103.152L334.908,105.032L334.87,105.05Z" style="fill:url(#_Linear28);stroke:black;stroke-width:0.5px;"/>
    </g>
    <g transform="matrix(-1,0,0,1,365.476,0)">
        <path d="M278.88,134.18L274.863,134.251L268.805,133.596L263.036,131.113L259.096,127.39L250.335,120.455L243.181,116.368L239.458,113.594L237.268,107.681L235.735,108.63L239.312,114.836L241.137,116.222L245.371,118.703L251.504,122.573L258.512,128.486L261.577,131.48L263.621,132.866L271.213,135.129L275.958,135.347L282.528,133.23L278.878,134.17L278.88,134.18Z" style="fill:url(#_Linear29);stroke:black;stroke-width:0.5px;"/>
    </g>
    <g transform="matrix(-1,0,0,1,365.476,0)">
        <path d="M286.98,62.636L289.388,62.927L290.776,63.657L292.893,64.752L293.404,66.504L293.258,68.621L293.112,69.934L291.944,71.54L290.784,73L288.886,74.095L286.405,74.606L285.237,74.606L288.447,73L289.615,71.103L290.126,69.133L289.615,67.234L288.885,65.044L287.498,63.876L285.455,62.49L286.985,62.636L286.98,62.636Z" style="fill:url(#_Linear30);stroke:black;stroke-width:0.5px;"/>
    </g>
    <g transform="matrix(-1,0,0,1,365.476,0)">
        <path d="M293.55,65.043L294.062,66.942L293.77,70.227L295.012,67.891L295.667,67.233L294.501,66.285L293.405,65.117L293.565,65.043L293.55,65.043Z" style="fill:url(#_Linear31);stroke:black;stroke-width:0.5px;"/>
    </g>
    <g transform="matrix(-1,0,0,1,365.476,0)">
        <path d="M275.23,18.763L277.785,15.915L282.53,14.163L282.457,15.915L285.378,15.988L288.663,13.067L288.224,15.11L292.897,14.819L291.802,18.177L288.59,21.096L283.625,23.14L280.12,21.827L277.785,24.017L277.347,21.023L275.237,18.763L275.23,18.763Z" style="fill:url(#_Linear32);stroke:black;stroke-width:0.5px;"/>
    </g>
    <g transform="matrix(-1,0,0,1,365.476,0)">
        <path d="M352.17,91.543C352.17,91.835 351.879,91.981 351.586,91.981C351.293,91.981 351.001,91.835 351.001,91.543C351.001,91.251 351.294,91.032 351.586,91.032C351.886,91.032 352.176,91.25 352.176,91.543L352.17,91.543Z" style="fill:url(#_Linear33);stroke:black;stroke-width:0.43px;"/>
    </g>
    <g transform="matrix(-1,0,0,1,365.476,0)">
        <path d="M350.13,78.622C350.13,78.768 349.984,78.842 349.839,78.842C349.693,78.842 349.546,78.769 349.546,78.622C349.546,78.475 349.692,78.402 349.839,78.402C349.979,78.402 350.129,78.476 350.129,78.622L350.13,78.622Z" style="fill:url(#_Linear34);stroke:black;stroke-width:0.43px;"/>
    </g>
    <g transform="matrix(-1,0,0,1,365.476,0)">
        <path d="M342.9,78.549L342.171,81.614L341.076,83.293L337.5,85.921L334.87,86.651L332.608,86.36L330.345,87.089L327.206,84.899L331.657,83.149L335.746,82.856L339.322,80.008L340.928,77.818L342.888,78.549L342.9,78.549Z" style="fill:url(#_Linear35);stroke:black;stroke-width:0.5px;"/>
    </g>
    <g transform="matrix(-1,0,0,1,365.476,0)">
        <path d="M352.46,86.432C352.46,86.652 352.24,86.871 352.021,86.871C351.876,86.871 351.656,86.651 351.656,86.432C351.656,86.213 351.877,85.994 352.021,85.994C352.241,85.995 352.461,86.214 352.461,86.432L352.46,86.432Z" style="fill:url(#_Linear36);stroke:black;stroke-width:0.43px;"/>
    </g>
    <g transform="matrix(-1,0,0,1,365.476,0)">
        <path d="M348.08,75.264C348.08,75.41 347.86,75.63 347.642,75.63C347.424,75.63 347.276,75.41 347.276,75.264C347.276,75.046 347.422,74.9 347.642,74.9C347.862,74.9 348.082,75.046 348.082,75.264L348.08,75.264Z" style="fill:url(#_Linear37);stroke:black;stroke-width:0.43px;"/>
    </g>
    <g transform="matrix(-1,0,0,1,365.476,0)">
        <path d="M322.02,54.459L322.459,60.299L326.546,62.854L333.043,64.095L338.372,66.65L342.68,67.745L337.424,62.927L332.75,59.277L329.758,56.796L322.008,54.459L322.02,54.459Z" style="fill:url(#_Linear38);stroke:black;stroke-width:0.5px;"/>
    </g>
    <g transform="matrix(-1,0,0,1,365.476,0)">
        <path d="M321.8,51.978L322.529,60.299L325.303,61.394L327.275,62.853L324.281,62.269L321.142,61.54L318.222,60.956L318.222,56.285L321.802,51.978L321.8,51.978Z" style="fill:url(#_Linear39);stroke:black;stroke-width:0.5px;"/>
    </g>
    <g transform="matrix(-1,0,0,1,365.476,0)">
        <path d="M322.53,52.562L323.041,55.918L330.854,58.401L328.59,54.822L322.53,52.562Z" style="fill:url(#_Linear40);stroke:black;stroke-width:0.5px;"/>
    </g>
    <g transform="matrix(-1,0,0,1,365.476,0)">
        <path d="M309.69,31.464L308.961,32.486L308.376,34.822L307.719,39.493L309.399,44.238L309.837,46.648L311.735,47.597L313.413,46.648L315.823,45.844L317.939,42.925L319.035,40.662L318.451,36.499L317.136,32.339L314.948,31.171L312.612,30.296L309.327,31.027L309.677,31.464L309.69,31.464Z" style="fill:url(#_Linear41);stroke:black;stroke-width:0.5px;"/>
    </g>
    <g transform="matrix(-1,0,0,1,365.476,0)">
        <path d="M308.59,41.611L311.291,44.603L314.139,44.969L317.131,43.29L319.03,40.662L319.03,37.377L317.861,41.026L316.986,40.662L317.424,37.741L316.694,35.04L315.235,32.486L313.264,30.296L310.781,30.076L308.08,32.777L307.205,38.619L308.595,41.611L308.59,41.611Z" style="fill:url(#_Linear42);stroke:black;stroke-width:0.5px;"/>
    </g>
    <g transform="matrix(-1,0,0,1,365.476,0)">
        <path d="M312.83,34.239C312.83,34.968 312.246,35.552 311.441,35.552C310.639,35.552 309.982,34.968 309.982,34.239C309.982,33.435 310.639,32.851 311.441,32.851C312.243,32.851 312.831,33.435 312.831,34.239L312.83,34.239Z" style="fill:url(#_Linear43);stroke:black;stroke-width:0.43px;"/>
    </g>
    <g transform="matrix(-1,0,0,1,365.476,0)">
        <path d="M283.7,66.358C283.7,67.16 283.116,67.744 282.386,67.744C281.583,67.744 280.926,67.16 280.926,66.358C280.926,65.627 281.583,65.043 282.386,65.043C283.106,65.043 283.696,65.627 283.696,66.358L283.7,66.358Z" style="fill:url(#_Linear44);stroke:black;stroke-width:0.43px;"/>
    </g>
    <g transform="matrix(-1,0,0,1,365.476,0)">
        <path d="M293.62,93.369L292.965,96.288L292.965,99.062" style="fill:none;fill-rule:nonzero;stroke:black;stroke-width:0.5px;"/>
    </g>
    <g transform="matrix(-1,0,0,1,365.476,0)">
        <path d="M297.93,92.711L296.543,95.485L295.666,99.792L295.666,102.638" style="fill:none;fill-rule:nonzero;stroke:black;stroke-width:0.5px;"/>
    </g>
    <g transform="matrix(-1,0,0,1,365.476,0)">
        <path d="M350.2,79.206L354.507,79.206L358.157,80.665L360.273,82.053L361.733,84.17" style="fill:none;fill-rule:nonzero;stroke:black;stroke-width:0.5px;"/>
    </g>
    <g transform="matrix(-1,0,0,1,365.476,0)">
        <path d="M353.7,87.017L358.154,87.674L362.387,89.864L365.235,91.981" style="fill:none;fill-rule:nonzero;stroke:black;stroke-width:0.5px;"/>
    </g>
    <g transform="matrix(-1,0,0,1,365.476,0)">
        <path d="M353.05,91.981L358.159,94.024L360.275,95.485L360.933,97.675" style="fill:none;fill-rule:nonzero;stroke:black;stroke-width:0.5px;"/>
    </g>
    <g transform="matrix(-1,0,0,1,365.476,0)">
        <path d="M347.43,74.242L351.663,73.513L355.169,73.513L361.737,74.242" style="fill:none;fill-rule:nonzero;stroke:black;stroke-width:0.5px;"/>
    </g>
    <g transform="matrix(-1,0,0,1,365.476,0)">
        <path d="M304.79,190.31L301.214,192.429L298.513,196.223L293.184,202.5L284.132,209.364L276.833,213.669L275.298,217.613L273.693,248.418L275.739,244.842L277.635,238.199L281.14,234.988L285.374,227.32L290.336,227.613L291.505,236.374L290.118,243.016L289.097,248.2L293.037,243.821L294.643,238.782L296.541,226.374L298.001,213.669L299.68,204.912L305.447,194.472L307.857,190.238L309.681,188.923L304.771,190.333L304.79,190.31Z" style="fill:url(#_Linear45);"/>
    </g>
    <g transform="matrix(-1,0,0,1,365.476,0)">
        <path d="M296.84,255.21L295.671,257.329L293.19,260.03L291.804,261.123L294.65,268.351L297.351,281.639L301.951,278.427L306.476,276.308L303.63,274.846L300.051,266.379L297.424,254.992L296.844,255.212L296.84,255.21Z" style="fill:url(#_Linear46);"/>
    </g>
    <g transform="matrix(-1,0,0,1,365.476,0)">
        <path d="M272.53,215.13L271.726,219.582L268.368,285.429L269.172,289.369L270.268,291.852L266.472,288.715L269.319,220.46L270.632,216.59L272.532,215.13L272.53,215.13Z" style="fill:url(#_Linear47);"/>
    </g>
    <g transform="matrix(-1,0,0,1,365.476,0)">
        <path d="M280.12,302.81L276.981,300.18L275.595,302.735L270.777,305.511L272.018,311.348L276.836,308.941L280.192,305.658L280.338,304.343L280.118,302.793L280.12,302.81Z" style="fill:url(#_Linear48);"/>
    </g>
    <g transform="matrix(-1,0,0,1,365.476,0)">
        <path d="M312.61,300.62L312.246,295.146L309.398,291.788L303.485,288.723" style="fill:none;fill-rule:nonzero;stroke:black;stroke-width:0.5px;"/>
    </g>
    <g transform="matrix(-1,0,0,1,365.476,0)">
        <path d="M322.61,291.2L321,285.43L315.818,283.168L309.321,280.978" style="fill:none;fill-rule:nonzero;stroke:black;stroke-width:0.5px;"/>
    </g>
    <g transform="matrix(-1,0,0,1,365.476,0)">
        <path d="M297.93,251.19L295.813,256.081" style="fill:none;fill-rule:nonzero;stroke:black;stroke-width:0.5px;"/>
    </g>
    <g transform="matrix(-1,0,0,1,365.476,0)">
        <path d="M308.08,167.39L306.841,177.315L302.824,186.004L297.789,193.743L292.751,199.287L284.21,203.521L280.414,204.689L283.699,198.265L284.795,195.417L289.102,194.688L295.963,185.709L297.205,174.465L299.101,171.253L304.212,169.356L307.277,164.977L308.097,167.387L308.08,167.39Z" style="fill:url(#_Linear49);"/>
    </g>
    <g transform="matrix(-1,0,0,1,365.476,0)">
        <path d="M313.41,117.24L315.527,130.161L316.404,142.278L315.747,155.71L314.067,157.171L310.928,156.878L303.118,160.821L301.219,159.215L304.942,155.054L306.841,149.068L309.03,145.783L311.731,141.038L313.264,132.424L313.414,117.234L313.41,117.24Z" style="fill:url(#_Linear50);"/>
    </g>
    <g transform="matrix(-1,0,0,1,365.476,0)">
        <path d="M322.83,102.27C322.83,102.49 322.61,102.708 322.392,102.708C322.246,102.708 322.026,102.49 322.026,102.27C322.026,102.123 322.246,101.977 322.392,101.977C322.612,101.977 322.832,102.127 322.832,102.267L322.83,102.27Z" style="fill:url(#_Linear51);stroke:black;stroke-width:0.43px;"/>
    </g>
    <g transform="matrix(-1,0,0,1,365.476,0)">
        <path d="M320.2,104.9C320.2,105.046 319.98,105.265 319.762,105.265C319.544,105.265 319.323,105.047 319.323,104.9C319.323,104.68 319.543,104.536 319.762,104.536C319.981,104.536 320.202,104.676 320.202,104.896L320.2,104.9Z" style="fill:url(#_Linear52);stroke:black;stroke-width:0.43px;"/>
    </g>
    <g transform="matrix(-1,0,0,1,365.476,0)">
        <path d="M318.74,100.6C318.74,100.746 318.594,100.965 318.374,100.965C318.154,100.965 318.009,100.747 318.009,100.6C318.009,100.38 318.155,100.089 318.374,100.089C318.604,100.079 318.754,100.379 318.754,100.599L318.74,100.6Z" style="fill:url(#_Linear53);stroke:black;stroke-width:0.43px;"/>
    </g>
    <g transform="matrix(-1,0,0,1,365.476,0)">
        <path d="M320.78,106.94C320.78,107.233 320.56,107.378 320.342,107.378C320.124,107.378 319.976,107.233 319.976,106.94C319.976,106.795 320.122,106.649 320.342,106.649C320.562,106.649 320.782,106.799 320.782,106.939L320.78,106.94Z" style="fill:url(#_Linear54);stroke:black;stroke-width:0.43px;"/>
    </g>
    <g transform="matrix(-1,0,0,1,365.476,0)">
        <path d="M325.53,106.51C325.53,106.656 325.384,106.73 325.237,106.73C325.092,106.73 324.946,106.657 324.946,106.51C324.946,106.363 325.092,106.219 325.237,106.219C325.382,106.219 325.527,106.359 325.527,106.509L325.53,106.51Z" style="fill:url(#_Linear55);stroke:black;stroke-width:0.43px;"/>
    </g>
    <g transform="matrix(-1,0,0,1,365.476,0)">
        <path d="M330.12,104.03C330.12,104.103 330.12,104.103 330.047,104.103C329.974,104.103 329.902,104.103 329.902,104.03L330.127,104.03L330.12,104.03Z" style="fill:url(#_Linear56);stroke:black;stroke-width:0.43px;"/>
    </g>
    <g transform="matrix(-1,0,0,1,365.476,0)">
        <path d="M320.56,100.52L316.327,99.791L310.56,101.908L306.982,104.754L302.092,108.917" style="fill:none;fill-rule:nonzero;stroke:black;stroke-width:0.5px;"/>
    </g>
    <g transform="matrix(-1,0,0,1,365.476,0)">
        <path d="M322.61,105.41L319.107,105.41L315.602,106.869L312.025,108.331L309.982,111.103L307.865,113.951" style="fill:none;fill-rule:nonzero;stroke:black;stroke-width:0.5px;"/>
    </g>
    <g transform="matrix(-1,0,0,1,365.476,0)">
        <path d="M321.22,105.41L317.714,109.643L316.985,115.338L316.985,116.797" style="fill:none;fill-rule:nonzero;stroke:black;stroke-width:0.5px;"/>
    </g>
    <g transform="matrix(-1,0,0,1,365.476,0)">
        <path d="M326.91,107.6L326.91,111.103L328.372,113.951L330.415,116.068" style="fill:none;fill-rule:nonzero;stroke:black;stroke-width:0.5px;"/>
    </g>
    <g transform="matrix(-1,0,0,1,365.476,0)">
        <path d="M324.14,106.87L322.608,109.644L322.608,113.951L323.485,116.799" style="fill:none;fill-rule:nonzero;stroke:black;stroke-width:0.5px;"/>
    </g>
    <g transform="matrix(-1,0,0,1,365.476,0)">
        <path d="M271.65,264.33L274.424,215.568L274.717,212.574L275.884,210.455L285.229,206.296L291.069,201.987L296.761,197.096L300.046,192.862L304.354,189.215" style="fill:none;fill-rule:nonzero;stroke:black;stroke-width:0.5px;"/>
    </g>
    <defs>
        <linearGradient id="_Linear1" x1="0" y1="0" x2="1" y2="0" gradientUnits="userSpaceOnUse" gradientTransform="matrix(7.18868e-15,-117.4,117.4,7.18868e-15,0,304.26)"><stop offset="0" style="stop-color:white;stop-opacity:1"/><stop offset="1" style="stop-color:white;stop-opacity:1"/></linearGradient>
        <linearGradient id="_Linear2" x1="0" y1="0" x2="1" y2="0" gradientUnits="userSpaceOnUse" gradientTransform="matrix(3.35247e-15,-54.75,54.75,3.35247e-15,0,248.06)"><stop offset="0" style="stop-color:rgb(230,230,230);stop-opacity:1"/><stop offset="1" style="stop-color:rgb(254,230,167);stop-opacity:1"/></linearGradient>
        <linearGradient id="_Linear3" x1="0" y1="0" x2="1" y2="0" gradientUnits="userSpaceOnUse" gradientTransform="matrix(1.99617e-15,-32.6,32.6,1.99617e-15,0,287.46)"><stop offset="0" style="stop-color:rgb(230,230,230);stop-opacity:1"/><stop offset="1" style="stop-color:rgb(254,230,167);stop-opacity:1"/></linearGradient>
        <linearGradient id="_Linear4" x1="0" y1="0" x2="1" y2="0" gradientUnits="userSpaceOnUse" gradientTransform="matrix(1.49689e-14,-244.46,244.46,1.49689e-14,0,331.26)"><stop offset="0" style="stop-color:white;stop-opacity:1"/><stop offset="1" style="stop-color:white;stop-opacity:1"/></linearGradient>
        <linearGradient id="_Linear5" x1="0" y1="0" x2="1" y2="0" gradientUnits="userSpaceOnUse" gradientTransform="matrix(3.38003e-15,-55.2,55.2,3.38003e-15,0,275.06)"><stop offset="0" style="stop-color:rgb(230,230,230);stop-opacity:1"/><stop offset="1" style="stop-color:rgb(254,230,167);stop-opacity:1"/></linearGradient>
        <linearGradient id="_Linear6" x1="0" y1="0" x2="1" y2="0" gradientUnits="userSpaceOnUse" gradientTransform="matrix(1.92576e-15,-31.45,31.45,1.92576e-15,0,260.96)"><stop offset="0" style="stop-color:rgb(230,230,230);stop-opacity:1"/><stop offset="1" style="stop-color:rgb(254,230,167);stop-opacity:1"/></linearGradient>
        <linearGradient id="_Linear7" x1="0" y1="0" x2="1" y2="0" gradientUnits="userSpaceOnUse" gradientTransform="matrix(1.76655e-15,-28.85,28.85,1.76655e-15,0,312.01)"><stop offset="0" style="stop-color:rgb(230,230,230);stop-opacity:1"/><stop offset="1" style="stop-color:rgb(254,230,167);stop-opacity:1"/></linearGradient>
        <linearGradient id="_Linear8" x1="0" y1="0" x2="1" y2="0" gradientUnits="userSpaceOnUse" gradientTransform="matrix(4.01347e-15,-65.545,65.545,4.01347e-15,0,113.36)"><stop offset="0" style="stop-color:white;stop-opacity:1"/><stop offset="1" style="stop-color:white;stop-opacity:1"/></linearGradient>
        <linearGradient id="_Linear9" x1="0" y1="0" x2="1" y2="0" gradientUnits="userSpaceOnUse" gradientTransform="matrix(3.93724e-15,-64.3,64.3,3.93724e-15,0,198.26)"><stop offset="0" style="stop-color:rgb(102,93,71);stop-opacity:1"/><stop offset="1" style="stop-color:rgb(159,121,89);stop-opacity:1"/></linearGradient>
        <linearGradient id="_Linear10" x1="0" y1="0" x2="1" y2="0" gradientUnits="userSpaceOnUse" gradientTransform="matrix(3.31879e-15,-54.2,54.2,3.31879e-15,0,150.76)"><stop offset="0" style="stop-color:rgb(102,93,71);stop-opacity:1"/><stop offset="1" style="stop-color:rgb(159,121,89);stop-opacity:1"/></linearGradient>
        <linearGradient id="_Linear11" x1="0" y1="0" x2="1" y2="0" gradientUnits="userSpaceOnUse" gradientTransform="matrix(4.2284e-15,-69.055,69.055,4.2284e-15,0,91.32)"><stop offset="0" style="stop-color:rgb(102,93,71);stop-opacity:1"/><stop offset="1" style="stop-color:rgb(159,121,89);stop-opacity:1"/></linearGradient>
        <linearGradient id="_Linear12" x1="0" y1="0" x2="1" y2="0" gradientUnits="userSpaceOnUse" gradientTransform="matrix(6.00077e-15,-98,98,6.00077e-15,0,206.61)"><stop offset="0" style="stop-color:black;stop-opacity:1"/><stop offset="1" style="stop-color:black;stop-opacity:1"/></linearGradient>
        <linearGradient id="_Linear13" x1="0" y1="0" x2="1" y2="0" gradientUnits="userSpaceOnUse" gradientTransform="matrix(5.68848e-15,-92.9,92.9,5.68848e-15,0,219.06)"><stop offset="0" style="stop-color:rgb(102,93,71);stop-opacity:1"/><stop offset="1" style="stop-color:rgb(159,121,89);stop-opacity:1"/></linearGradient>
        <linearGradient id="_Linear14" x1="0" y1="0" x2="1" y2="0" gradientUnits="userSpaceOnUse" gradientTransform="matrix(5.94566e-15,-97.1,97.1,5.94566e-15,0,202.51)"><stop offset="0" style="stop-color:black;stop-opacity:1"/><stop offset="1" style="stop-color:black;stop-opacity:1"/></linearGradient>
        <linearGradient id="_Linear15" x1="0" y1="0" x2="1" y2="0" gradientUnits="userSpaceOnUse" gradientTransform="matrix(1.20536e-14,-196.85,196.85,1.20536e-14,0,300.01)"><stop offset="0" style="stop-color:rgb(102,93,71);stop-opacity:1"/><stop offset="1" style="stop-color:rgb(159,121,89);stop-opacity:1"/></linearGradient>
        <linearGradient id="_Linear16" x1="0" y1="0" x2="1" y2="0" gradientUnits="userSpaceOnUse" gradientTransform="matrix(1.35936e-15,-22.2,22.2,1.35936e-15,0,107.61)"><stop offset="0" style="stop-color:white;stop-opacity:1"/><stop offset="1" style="stop-color:white;stop-opacity:1"/></linearGradient>
        <linearGradient id="_Linear17" x1="0" y1="0" x2="1" y2="0" gradientUnits="userSpaceOnUse" gradientTransform="matrix(3.72782e-15,-60.88,60.88,3.72782e-15,0,62.925)"><stop offset="0" style="stop-color:black;stop-opacity:1"/><stop offset="1" style="stop-color:black;stop-opacity:1"/></linearGradient>
        <linearGradient id="_Linear18" x1="0" y1="0" x2="1" y2="0" gradientUnits="userSpaceOnUse" gradientTransform="matrix(4.8597e-15,-79.365,79.365,4.8597e-15,0,122.51)"><stop offset="0" style="stop-color:rgb(102,93,71);stop-opacity:1"/><stop offset="1" style="stop-color:rgb(159,121,89);stop-opacity:1"/></linearGradient>
        <linearGradient id="_Linear19" x1="0" y1="0" x2="1" y2="0" gradientUnits="userSpaceOnUse" gradientTransform="matrix(2.06965e-15,-33.8,33.8,2.06965e-15,0,64.24)"><stop offset="0" style="stop-color:rgb(222,171,98);stop-opacity:1"/><stop offset="1" style="stop-color:rgb(126,95,57);stop-opacity:1"/></linearGradient>
        <linearGradient id="_Linear20" x1="0" y1="0" x2="1" y2="0" gradientUnits="userSpaceOnUse" gradientTransform="matrix(3.61179e-15,-58.985,58.985,3.61179e-15,0,68.4)"><stop offset="0" style="stop-color:rgb(102,93,71);stop-opacity:1"/><stop offset="1" style="stop-color:rgb(159,121,89);stop-opacity:1"/></linearGradient>
        <linearGradient id="_Linear21" x1="0" y1="0" x2="1" y2="0" gradientUnits="userSpaceOnUse" gradientTransform="matrix(2.1814e-15,-35.625,35.625,2.1814e-15,0,103.66)"><stop offset="0" style="stop-color:black;stop-opacity:1"/><stop offset="1" style="stop-color:black;stop-opacity:1"/></linearGradient>
        <linearGradient id="_Linear22" x1="0" y1="0" x2="1" y2="0" gradientUnits="userSpaceOnUse" gradientTransform="matrix(5.85565e-15,-95.63,95.63,5.85565e-15,0,134.76)"><stop offset="0" style="stop-color:black;stop-opacity:1"/><stop offset="1" style="stop-color:black;stop-opacity:1"/></linearGradient>
        <linearGradient id="_Linear23" x1="0" y1="0" x2="1" y2="0" gradientUnits="userSpaceOnUse" gradientTransform="matrix(4.53854e-15,-74.12,74.12,4.53854e-15,0,99.96)"><stop offset="0" style="stop-color:black;stop-opacity:1"/><stop offset="1" style="stop-color:black;stop-opacity:1"/></linearGradient>
        <linearGradient id="_Linear24" x1="0" y1="0" x2="1" y2="0" gradientUnits="userSpaceOnUse" gradientTransform="matrix(3.71895e-15,-60.735,60.735,3.71895e-15,0,60.88)"><stop offset="0" style="stop-color:black;stop-opacity:1"/><stop offset="1" style="stop-color:black;stop-opacity:1"/></linearGradient>
        <linearGradient id="_Linear25" x1="0" y1="0" x2="1" y2="0" gradientUnits="userSpaceOnUse" gradientTransform="matrix(8.76235e-16,-14.31,14.31,8.76235e-16,0,48.255)"><stop offset="0" style="stop-color:rgb(102,93,71);stop-opacity:1"/><stop offset="1" style="stop-color:rgb(159,121,89);stop-opacity:1"/></linearGradient>
        <linearGradient id="_Linear26" x1="0" y1="0" x2="1" y2="0" gradientUnits="userSpaceOnUse" gradientTransform="matrix(1.14872e-15,-18.76,18.76,1.14872e-15,0,70.08)"><stop offset="0" style="stop-color:rgb(231,190,112);stop-opacity:1"/><stop offset="1" style="stop-color:rgb(159,121,89);stop-opacity:1"/></linearGradient>
        <linearGradient id="_Linear27" x1="0" y1="0" x2="1" y2="0" gradientUnits="userSpaceOnUse" gradientTransform="matrix(1.23812e-15,-20.22,20.22,1.23812e-15,0,43.945)"><stop offset="0" style="stop-color:rgb(231,190,112);stop-opacity:1"/><stop offset="1" style="stop-color:rgb(159,121,89);stop-opacity:1"/></linearGradient>
        <linearGradient id="_Linear28" x1="0" y1="0" x2="1" y2="0" gradientUnits="userSpaceOnUse" gradientTransform="matrix(5.69461e-15,-93,93,5.69461e-15,0,109.06)"><stop offset="0" style="stop-color:white;stop-opacity:1"/><stop offset="1" style="stop-color:white;stop-opacity:1"/></linearGradient>
        <linearGradient id="_Linear29" x1="0" y1="0" x2="1" y2="0" gradientUnits="userSpaceOnUse" gradientTransform="matrix(1.69614e-15,-27.7,27.7,1.69614e-15,0,135.36)"><stop offset="0" style="stop-color:black;stop-opacity:1"/><stop offset="1" style="stop-color:black;stop-opacity:1"/></linearGradient>
        <linearGradient id="_Linear30" x1="0" y1="0" x2="1" y2="0" gradientUnits="userSpaceOnUse" gradientTransform="matrix(7.4183e-16,-12.115,12.115,7.4183e-16,0,74.605)"><stop offset="0" style="stop-color:white;stop-opacity:1"/><stop offset="1" style="stop-color:white;stop-opacity:1"/></linearGradient>
        <linearGradient id="_Linear31" x1="0" y1="0" x2="1" y2="0" gradientUnits="userSpaceOnUse" gradientTransform="matrix(3.17184e-16,-5.18,5.18,3.17184e-16,0,70.225)"><stop offset="0" style="stop-color:white;stop-opacity:1"/><stop offset="1" style="stop-color:rgb(126,95,57);stop-opacity:1"/></linearGradient>
        <linearGradient id="_Linear32" x1="0" y1="0" x2="1" y2="0" gradientUnits="userSpaceOnUse" gradientTransform="matrix(6.708e-16,-10.955,10.955,6.708e-16,0,24.02)"><stop offset="0" style="stop-color:rgb(102,93,71);stop-opacity:1"/><stop offset="1" style="stop-color:rgb(159,121,89);stop-opacity:1"/></linearGradient>
        <linearGradient id="_Linear33" x1="0" y1="0" x2="1" y2="0" gradientUnits="userSpaceOnUse" gradientTransform="matrix(5.81707e-17,-0.95,0.95,5.81707e-17,0,91.98)"><stop offset="0" style="stop-color:white;stop-opacity:1"/><stop offset="1" style="stop-color:rgb(127,127,127);stop-opacity:1"/></linearGradient>
        <linearGradient id="_Linear34" x1="0" y1="0" x2="1" y2="0" gradientUnits="userSpaceOnUse" gradientTransform="matrix(2.66361e-17,-0.435,0.435,2.66361e-17,0,78.84)"><stop offset="0" style="stop-color:white;stop-opacity:1"/><stop offset="1" style="stop-color:rgb(127,127,127);stop-opacity:1"/></linearGradient>
        <linearGradient id="_Linear35" x1="0" y1="0" x2="1" y2="0" gradientUnits="userSpaceOnUse" gradientTransform="matrix(5.6793e-16,-9.275,9.275,5.6793e-16,0,87.09)"><stop offset="0" style="stop-color:rgb(228,184,128);stop-opacity:1"/><stop offset="1" style="stop-color:rgb(127,127,127);stop-opacity:1"/></linearGradient>
        <linearGradient id="_Linear36" x1="0" y1="0" x2="1" y2="0" gradientUnits="userSpaceOnUse" gradientTransform="matrix(5.35783e-17,-0.875,0.875,5.35783e-17,0,86.87)"><stop offset="0" style="stop-color:white;stop-opacity:1"/><stop offset="1" style="stop-color:rgb(127,127,127);stop-opacity:1"/></linearGradient>
        <linearGradient id="_Linear37" x1="0" y1="0" x2="1" y2="0" gradientUnits="userSpaceOnUse" gradientTransform="matrix(4.46996e-17,-0.73,0.73,4.46996e-17,0,75.63)"><stop offset="0" style="stop-color:white;stop-opacity:1"/><stop offset="1" style="stop-color:rgb(127,127,127);stop-opacity:1"/></linearGradient>
        <linearGradient id="_Linear38" x1="0" y1="0" x2="1" y2="0" gradientUnits="userSpaceOnUse" gradientTransform="matrix(8.13472e-16,-13.285,13.285,8.13472e-16,0,67.745)"><stop offset="0" style="stop-color:rgb(222,171,98);stop-opacity:1"/><stop offset="1" style="stop-color:rgb(126,95,57);stop-opacity:1"/></linearGradient>
        <linearGradient id="_Linear39" x1="0" y1="0" x2="1" y2="0" gradientUnits="userSpaceOnUse" gradientTransform="matrix(6.66208e-16,-10.88,10.88,6.66208e-16,0,62.855)"><stop offset="0" style="stop-color:black;stop-opacity:1"/><stop offset="1" style="stop-color:black;stop-opacity:1"/></linearGradient>
        <linearGradient id="_Linear40" x1="0" y1="0" x2="1" y2="0" gradientUnits="userSpaceOnUse" gradientTransform="matrix(3.57597e-16,-5.84,5.84,3.57597e-16,0,58.4)"><stop offset="0" style="stop-color:rgb(102,93,71);stop-opacity:1"/><stop offset="1" style="stop-color:rgb(159,121,89);stop-opacity:1"/></linearGradient>
        <linearGradient id="_Linear41" x1="0" y1="0" x2="1" y2="0" gradientUnits="userSpaceOnUse" gradientTransform="matrix(1.05932e-15,-17.3,17.3,1.05932e-15,0,47.595)"><stop offset="0" style="stop-color:white;stop-opacity:1"/><stop offset="1" style="stop-color:white;stop-opacity:1"/></linearGradient>
        <linearGradient id="_Linear42" x1="0" y1="0" x2="1" y2="0" gradientUnits="userSpaceOnUse" gradientTransform="matrix(9.12056e-16,-14.895,14.895,9.12056e-16,0,44.97)"><stop offset="0" style="stop-color:black;stop-opacity:1"/><stop offset="1" style="stop-color:black;stop-opacity:1"/></linearGradient>
        <linearGradient id="_Linear43" x1="0" y1="0" x2="1" y2="0" gradientUnits="userSpaceOnUse" gradientTransform="matrix(1.65327e-16,-2.7,2.7,1.65327e-16,0,35.55)"><stop offset="0" style="stop-color:white;stop-opacity:1"/><stop offset="1" style="stop-color:white;stop-opacity:1"/></linearGradient>
        <linearGradient id="_Linear44" x1="0" y1="0" x2="1" y2="0" gradientUnits="userSpaceOnUse" gradientTransform="matrix(1.65327e-16,-2.7,2.7,1.65327e-16,0,67.745)"><stop offset="0" style="stop-color:white;stop-opacity:1"/><stop offset="1" style="stop-color:white;stop-opacity:1"/></linearGradient>
        <linearGradient id="_Linear45" x1="0" y1="0" x2="1" y2="0" gradientUnits="userSpaceOnUse" gradientTransform="matrix(3.64332e-15,-59.5,59.5,3.64332e-15,0,248.41)"><stop offset="0" style="stop-color:rgb(230,230,230);stop-opacity:1"/><stop offset="1" style="stop-color:rgb(254,230,167);stop-opacity:1"/></linearGradient>
        <linearGradient id="_Linear46" x1="0" y1="0" x2="1" y2="0" gradientUnits="userSpaceOnUse" gradientTransform="matrix(1.63184e-15,-26.65,26.65,1.63184e-15,0,281.66)"><stop offset="0" style="stop-color:rgb(230,230,230);stop-opacity:1"/><stop offset="1" style="stop-color:rgb(254,230,167);stop-opacity:1"/></linearGradient>
        <linearGradient id="_Linear47" x1="0" y1="0" x2="1" y2="0" gradientUnits="userSpaceOnUse" gradientTransform="matrix(4.69958e-15,-76.75,76.75,4.69958e-15,0,291.86)"><stop offset="0" style="stop-color:rgb(230,230,230);stop-opacity:1"/><stop offset="1" style="stop-color:rgb(254,230,167);stop-opacity:1"/></linearGradient>
        <linearGradient id="_Linear48" x1="0" y1="0" x2="1" y2="0" gradientUnits="userSpaceOnUse" gradientTransform="matrix(6.85802e-16,-11.2,11.2,6.85802e-16,0,311.36)"><stop offset="0" style="stop-color:rgb(230,230,230);stop-opacity:1"/><stop offset="1" style="stop-color:rgb(254,230,167);stop-opacity:1"/></linearGradient>
        <linearGradient id="_Linear49" x1="0" y1="0" x2="1" y2="0" gradientUnits="userSpaceOnUse" gradientTransform="matrix(2.43399e-15,-39.75,39.75,2.43399e-15,0,204.71)"><stop offset="0" style="stop-color:rgb(230,230,230);stop-opacity:1"/><stop offset="1" style="stop-color:rgb(254,230,167);stop-opacity:1"/></linearGradient>
        <linearGradient id="_Linear50" x1="0" y1="0" x2="1" y2="0" gradientUnits="userSpaceOnUse" gradientTransform="matrix(2.66667e-15,-43.55,43.55,2.66667e-15,0,160.81)"><stop offset="0" style="stop-color:rgb(230,230,230);stop-opacity:1"/><stop offset="1" style="stop-color:rgb(254,230,167);stop-opacity:1"/></linearGradient>
        <linearGradient id="_Linear51" x1="0" y1="0" x2="1" y2="0" gradientUnits="userSpaceOnUse" gradientTransform="matrix(4.59243e-17,-0.75,0.75,4.59243e-17,0,102.71)"><stop offset="0" style="stop-color:white;stop-opacity:1"/><stop offset="1" style="stop-color:rgb(127,127,127);stop-opacity:1"/></linearGradient>
        <linearGradient id="_Linear52" x1="0" y1="0" x2="1" y2="0" gradientUnits="userSpaceOnUse" gradientTransform="matrix(4.28626e-17,-0.7,0.7,4.28626e-17,0,105.26)"><stop offset="0" style="stop-color:white;stop-opacity:1"/><stop offset="1" style="stop-color:rgb(127,127,127);stop-opacity:1"/></linearGradient>
        <linearGradient id="_Linear53" x1="0" y1="0" x2="1" y2="0" gradientUnits="userSpaceOnUse" gradientTransform="matrix(5.51091e-17,-0.9,0.9,5.51091e-17,0,100.96)"><stop offset="0" style="stop-color:white;stop-opacity:1"/><stop offset="1" style="stop-color:rgb(127,127,127);stop-opacity:1"/></linearGradient>
        <linearGradient id="_Linear54" x1="0" y1="0" x2="1" y2="0" gradientUnits="userSpaceOnUse" gradientTransform="matrix(4.28626e-17,-0.7,0.7,4.28626e-17,0,107.36)"><stop offset="0" style="stop-color:white;stop-opacity:1"/><stop offset="1" style="stop-color:rgb(127,127,127);stop-opacity:1"/></linearGradient>
        <linearGradient id="_Linear55" x1="0" y1="0" x2="1" y2="0" gradientUnits="userSpaceOnUse" gradientTransform="matrix(3.06162e-17,-0.5,0.5,3.06162e-17,0,106.71)"><stop offset="0" style="stop-color:white;stop-opacity:1"/><stop offset="1" style="stop-color:rgb(127,127,127);stop-opacity:1"/></linearGradient>
        <linearGradient id="_Linear56" x1="0" y1="0" x2="1" y2="0" gradientUnits="userSpaceOnUse" gradientTransform="matrix(6.12323e-18,-0.1,0.1,6.12323e-18,0,104.11)"><stop offset="0" style="stop-color:white;stop-opacity:1"/><stop offset="1" style="stop-color:rgb(127,127,127);stop-opacity:1"/></linearGradient>
    </defs>
</svg>
