<?xml version="1.0" encoding="UTF-8" standalone="no"?>
<!DOCTYPE svg PUBLIC "-//W3C//DTD SVG 1.1//EN" "http://www.w3.org/Graphics/SVG/1.1/DTD/svg11.dtd">
<svg width="100%" height="100%" viewBox="0 0 335 120" version="1.1" xmlns="http://www.w3.org/2000/svg" xmlns:xlink="http://www.w3.org/1999/xlink" xml:space="preserve" xmlns:serif="http://www.serif.com/" style="fill-rule:evenodd;clip-rule:evenodd;stroke-linejoin:round;stroke-miterlimit:2;">
    <g transform="matrix(1,0,0,1,-274.777,-352.08)">
        <g transform="matrix(1,0,0,1,-217.45,-75.85)">
            <g transform="matrix(1,0,0,1,160.415,-341.268)">
                <g transform="matrix(41.6667,0,0,41.6667,331.77,822.189)">
                    <path d="M0.534,-0.652L0.534,-0.738C0.534,-0.774 0.512,-0.793 0.467,-0.796C0.406,-0.798 0.281,-0.798 0.09,-0.796C0.035,-0.796 0.005,-0.769 0.001,-0.715L0.001,0.001L0.49,0.001C0.502,0.001 0.512,-0.001 0.52,-0.006C0.529,-0.013 0.534,-0.025 0.534,-0.04L0.534,-0.147C0.531,-0.112 0.506,-0.084 0.457,-0.062C0.402,-0.041 0.331,-0.03 0.246,-0.03L0.114,-0.03L0.114,-0.316C0.114,-0.351 0.127,-0.37 0.153,-0.373L0.37,-0.373C0.385,-0.369 0.393,-0.375 0.394,-0.391C0.391,-0.396 0.379,-0.398 0.36,-0.399L0.116,-0.399L0.116,-0.707C0.116,-0.742 0.132,-0.761 0.163,-0.764C0.241,-0.764 0.273,-0.764 0.259,-0.765C0.31,-0.764 0.359,-0.759 0.404,-0.75C0.425,-0.745 0.444,-0.738 0.461,-0.73C0.5,-0.711 0.525,-0.685 0.534,-0.652Z" style="fill:white;fill-rule:nonzero;"/>
                </g>
                <g transform="matrix(41.6667,0,0,41.6667,356.145,822.189)">
                    <path d="M0.543,-0.824C0.542,-0.85 0.532,-0.863 0.514,-0.863L0.43,-0.863L0.43,-0.534C0.43,-0.517 0.427,-0.508 0.42,-0.508C0.415,-0.508 0.409,-0.514 0.401,-0.527C0.346,-0.603 0.289,-0.641 0.228,-0.641C0.208,-0.641 0.189,-0.636 0.17,-0.627C0.143,-0.609 0.118,-0.587 0.096,-0.56C0.045,-0.496 0.013,-0.414 0,-0.315C-0.005,-0.105 0.061,-0 0.197,-0C0.218,-0.003 0.239,-0.012 0.262,-0.027C0.317,-0.062 0.373,-0.125 0.43,-0.214L0.43,-0.035C0.432,-0.012 0.446,-0 0.471,-0L0.543,-0L0.543,-0.824ZM0.427,-0.313C0.422,-0.262 0.395,-0.209 0.347,-0.152C0.323,-0.123 0.296,-0.099 0.266,-0.081C0.252,-0.072 0.238,-0.068 0.224,-0.068C0.194,-0.068 0.169,-0.085 0.149,-0.12C0.12,-0.168 0.106,-0.227 0.106,-0.298C0.106,-0.346 0.114,-0.393 0.129,-0.438C0.154,-0.515 0.182,-0.566 0.215,-0.591C0.226,-0.599 0.237,-0.603 0.249,-0.603C0.275,-0.603 0.304,-0.583 0.336,-0.544C0.363,-0.511 0.384,-0.482 0.399,-0.456C0.424,-0.413 0.433,-0.365 0.427,-0.313Z" style="fill:white;fill-rule:nonzero;"/>
                </g>
                <g transform="matrix(41.6667,0,0,41.6667,380.854,822.189)">
                    <path d="M0.117,-0.764C0.117,-0.748 0.111,-0.735 0.1,-0.724C0.088,-0.713 0.075,-0.707 0.059,-0.707C0.042,-0.707 0.029,-0.713 0.018,-0.724C0.007,-0.735 0.001,-0.748 0.001,-0.764C0.001,-0.78 0.007,-0.794 0.018,-0.805C0.029,-0.816 0.042,-0.822 0.059,-0.822C0.075,-0.822 0.088,-0.816 0.1,-0.805C0.111,-0.794 0.117,-0.78 0.117,-0.764ZM0.117,-0.639L0.117,-0.029C0.12,-0.012 0.109,-0.002 0.083,-0.001L0.001,-0.001L0.001,-0.601C-0.002,-0.625 0.012,-0.638 0.041,-0.639L0.117,-0.639Z" style="fill:white;fill-rule:nonzero;"/>
                </g>
                <g transform="matrix(41.6667,0,0,41.6667,387.895,822.189)">
                    <path d="M0.001,-0.639L0.075,-0.639C0.104,-0.637 0.117,-0.625 0.114,-0.603L0.114,-0.357C0.114,-0.343 0.116,-0.336 0.119,-0.336C0.122,-0.336 0.127,-0.342 0.133,-0.354C0.148,-0.39 0.164,-0.426 0.179,-0.462C0.198,-0.505 0.217,-0.538 0.237,-0.564C0.276,-0.614 0.318,-0.639 0.364,-0.639C0.409,-0.639 0.447,-0.623 0.476,-0.59C0.513,-0.537 0.531,-0.472 0.531,-0.395L0.531,-0.001L0.446,-0.001C0.425,-0.002 0.415,-0.012 0.415,-0.03L0.415,-0.475C0.415,-0.501 0.409,-0.522 0.397,-0.539C0.384,-0.556 0.368,-0.565 0.349,-0.565C0.334,-0.565 0.318,-0.56 0.301,-0.549C0.27,-0.528 0.24,-0.496 0.212,-0.452C0.21,-0.449 0.188,-0.409 0.147,-0.334C0.125,-0.29 0.114,-0.258 0.114,-0.239C0.115,-0.129 0.115,-0.06 0.114,-0.032C0.114,-0.027 0.113,-0.022 0.111,-0.017C0.106,-0.007 0.097,-0.002 0.085,-0.002L0.001,-0.001L0.001,-0.639Z" style="fill:white;fill-rule:nonzero;"/>
                </g>
                <g transform="matrix(41.6667,0,0,41.6667,412.145,822.189)">
                    <path d="M0.524,-0.382C0.521,-0.417 0.515,-0.449 0.507,-0.479C0.488,-0.554 0.458,-0.602 0.417,-0.625C0.401,-0.634 0.384,-0.638 0.365,-0.638C0.322,-0.638 0.281,-0.619 0.244,-0.582C0.207,-0.545 0.17,-0.487 0.135,-0.41C0.129,-0.397 0.124,-0.39 0.12,-0.39C0.117,-0.39 0.115,-0.397 0.115,-0.412L0.115,-0.862L0.033,-0.862C0.028,-0.861 0.023,-0.86 0.019,-0.857C0.008,-0.85 0.002,-0.838 0.001,-0.821L0.001,0.002L0.064,0.002C0.101,0.002 0.12,-0.027 0.12,-0.085C0.12,-0.094 0.12,-0.103 0.119,-0.111C0.12,-0.104 0.138,-0.086 0.175,-0.057C0.224,-0.018 0.269,0.002 0.309,0.002C0.329,0.002 0.348,-0.002 0.366,-0.011C0.401,-0.027 0.431,-0.055 0.458,-0.094C0.482,-0.129 0.5,-0.168 0.511,-0.211C0.526,-0.268 0.53,-0.325 0.524,-0.382ZM0.309,-0.068C0.294,-0.061 0.278,-0.057 0.263,-0.057C0.224,-0.057 0.189,-0.078 0.16,-0.121C0.135,-0.158 0.12,-0.198 0.117,-0.24C0.114,-0.281 0.123,-0.326 0.144,-0.373C0.163,-0.415 0.187,-0.452 0.218,-0.485C0.256,-0.525 0.29,-0.545 0.319,-0.545C0.354,-0.545 0.381,-0.517 0.4,-0.46C0.413,-0.421 0.419,-0.387 0.419,-0.358C0.419,-0.295 0.417,-0.251 0.412,-0.226C0.397,-0.147 0.363,-0.095 0.309,-0.068Z" style="fill:white;fill-rule:nonzero;"/>
                </g>
                <g transform="matrix(41.6667,0,0,41.6667,436.145,822.189)">
                    <path d="M0.001,-0.637L0.084,-0.637C0.107,-0.637 0.119,-0.625 0.12,-0.6L0.12,-0.127C0.12,-0.091 0.137,-0.073 0.17,-0.073C0.179,-0.073 0.187,-0.075 0.196,-0.079C0.217,-0.088 0.238,-0.108 0.258,-0.138C0.298,-0.199 0.326,-0.252 0.342,-0.299C0.352,-0.328 0.36,-0.36 0.365,-0.395C0.369,-0.424 0.371,-0.459 0.372,-0.5C0.372,-0.535 0.372,-0.57 0.373,-0.605C0.374,-0.626 0.381,-0.637 0.394,-0.637L0.484,-0.637L0.484,-0L0.395,-0C0.38,-0 0.371,-0.013 0.37,-0.039L0.37,-0.316C0.37,-0.313 0.364,-0.293 0.352,-0.258C0.315,-0.149 0.256,-0.068 0.175,-0.017C0.156,-0.006 0.136,-0 0.114,-0C0.091,-0 0.07,-0.006 0.051,-0.019C0.032,-0.032 0.02,-0.05 0.014,-0.073C0.011,-0.084 0.008,-0.114 0.004,-0.163C0.002,-0.184 0.001,-0.21 0.001,-0.239L0.001,-0.637Z" style="fill:white;fill-rule:nonzero;"/>
                </g>
                <g transform="matrix(41.6667,0,0,41.6667,458.395,822.189)">
                    <path d="M0.37,-0.638C0.32,-0.638 0.275,-0.612 0.236,-0.561C0.209,-0.526 0.18,-0.474 0.149,-0.406C0.133,-0.371 0.124,-0.354 0.121,-0.355C0.119,-0.356 0.118,-0.367 0.118,-0.387L0.118,-0.599C0.121,-0.623 0.108,-0.636 0.079,-0.638L0.001,-0.638L0.001,0.001L0.1,0.001C0.113,-0.004 0.121,-0.014 0.122,-0.029L0.122,-0.265C0.122,-0.282 0.131,-0.307 0.148,-0.34C0.161,-0.367 0.183,-0.406 0.214,-0.458C0.239,-0.495 0.268,-0.53 0.301,-0.563C0.317,-0.578 0.334,-0.586 0.351,-0.586C0.371,-0.586 0.39,-0.576 0.407,-0.555C0.421,-0.538 0.432,-0.519 0.439,-0.496L0.439,-0.594C0.439,-0.623 0.416,-0.638 0.37,-0.638Z" style="fill:white;fill-rule:nonzero;"/>
                </g>
                <g transform="matrix(41.6667,0,0,41.6667,476.729,822.189)">
                    <path d="M0.535,-0.007C0.491,-0.035 0.423,-0.062 0.33,-0.089C0.312,-0.094 0.282,-0.101 0.241,-0.112C0.197,-0.123 0.175,-0.136 0.175,-0.149C0.175,-0.156 0.181,-0.164 0.192,-0.173C0.217,-0.193 0.239,-0.208 0.258,-0.219C0.267,-0.218 0.279,-0.217 0.294,-0.217C0.352,-0.217 0.403,-0.23 0.446,-0.257C0.475,-0.275 0.498,-0.3 0.514,-0.333C0.53,-0.365 0.538,-0.399 0.538,-0.434C0.538,-0.477 0.528,-0.513 0.507,-0.542C0.497,-0.555 0.492,-0.566 0.492,-0.574C0.492,-0.585 0.501,-0.591 0.518,-0.592L0.556,-0.592C0.563,-0.592 0.577,-0.593 0.596,-0.594C0.601,-0.598 0.603,-0.601 0.603,-0.604C0.603,-0.61 0.592,-0.613 0.569,-0.614C0.522,-0.615 0.477,-0.617 0.434,-0.618C0.414,-0.619 0.402,-0.619 0.399,-0.619C0.384,-0.62 0.373,-0.623 0.365,-0.627C0.346,-0.636 0.324,-0.639 0.299,-0.638C0.252,-0.636 0.207,-0.624 0.165,-0.601C0.118,-0.575 0.087,-0.541 0.07,-0.5C0.061,-0.478 0.056,-0.455 0.056,-0.43C0.056,-0.39 0.067,-0.353 0.089,-0.319C0.11,-0.284 0.139,-0.26 0.174,-0.246C0.185,-0.242 0.195,-0.239 0.202,-0.238C0.207,-0.238 0.209,-0.236 0.209,-0.231C0.209,-0.226 0.203,-0.22 0.192,-0.213C0.167,-0.2 0.143,-0.186 0.119,-0.172C0.084,-0.148 0.066,-0.125 0.066,-0.104C0.066,-0.087 0.075,-0.074 0.093,-0.064C0.116,-0.051 0.15,-0.042 0.195,-0.037C0.075,-0.01 0.01,0.041 0.001,0.115C0.001,0.162 0.041,0.198 0.12,0.223C0.177,0.242 0.234,0.251 0.291,0.251C0.338,0.251 0.386,0.243 0.437,0.226C0.487,0.21 0.527,0.189 0.558,0.162C0.583,0.14 0.597,0.116 0.6,0.089C0.604,0.055 0.582,0.023 0.535,-0.007ZM0.188,-0.429C0.188,-0.479 0.199,-0.522 0.22,-0.557C0.241,-0.592 0.267,-0.61 0.297,-0.61C0.327,-0.61 0.353,-0.592 0.374,-0.557C0.395,-0.522 0.406,-0.479 0.406,-0.429C0.406,-0.379 0.395,-0.336 0.374,-0.301C0.353,-0.266 0.327,-0.248 0.297,-0.248C0.267,-0.248 0.241,-0.266 0.22,-0.301C0.199,-0.336 0.188,-0.379 0.188,-0.429ZM0.441,0.177C0.403,0.205 0.355,0.219 0.298,0.219C0.232,0.219 0.183,0.2 0.152,0.162C0.141,0.149 0.136,0.133 0.136,0.116C0.136,0.101 0.14,0.083 0.148,0.064C0.159,0.04 0.169,0.023 0.179,0.012C0.2,-0.012 0.224,-0.024 0.252,-0.024C0.264,-0.024 0.289,-0.019 0.328,-0.01C0.367,-0.001 0.4,0.013 0.429,0.031C0.465,0.054 0.483,0.08 0.483,0.107C0.483,0.133 0.469,0.156 0.441,0.177Z" style="fill:white;fill-rule:nonzero;"/>
                </g>
                <g transform="matrix(41.6667,0,0,41.6667,503.937,822.189)">
                    <path d="M0.001,-0.863L0.001,-0.001L0.073,-0.001C0.099,-0.001 0.113,-0.016 0.115,-0.045L0.115,-0.26C0.115,-0.289 0.121,-0.32 0.132,-0.355C0.143,-0.39 0.166,-0.43 0.202,-0.476C0.223,-0.505 0.238,-0.523 0.247,-0.532C0.268,-0.553 0.288,-0.564 0.307,-0.565C0.349,-0.567 0.37,-0.531 0.37,-0.456C0.369,-0.371 0.369,-0.232 0.37,-0.038C0.37,-0.015 0.38,-0.002 0.4,-0.001L0.485,-0.001L0.485,-0.354C0.485,-0.382 0.485,-0.393 0.485,-0.386C0.484,-0.431 0.481,-0.469 0.474,-0.502C0.466,-0.538 0.453,-0.569 0.434,-0.594C0.412,-0.623 0.386,-0.638 0.356,-0.638C0.344,-0.638 0.332,-0.636 0.319,-0.631C0.244,-0.601 0.176,-0.517 0.115,-0.378L0.115,-0.818C0.115,-0.846 0.101,-0.861 0.074,-0.863L0.001,-0.863Z" style="fill:white;fill-rule:nonzero;"/>
                </g>
            </g>
            <g transform="matrix(0.1359,0.0489945,-0.0489945,0.1359,725.961,217.977)">
                <path d="M543.011,1785.49C523.985,1771.65 531.151,1776.25 523.3,1765.46C517.066,1756.9 514.927,1744.35 510.316,1734.68C484.196,1679.9 466.823,1618.72 489.041,1558.43C492.527,1548.97 495.482,1539.36 499.856,1530.49C502.983,1524.15 508.413,1517.99 512.663,1512.3C522.84,1498.66 555.613,1480.28 573.437,1489.16C589.683,1497.25 642.253,1561.07 647.978,1574.64C660.815,1605.06 692.395,1689.84 684.427,1721.59C670.443,1777.32 590.696,1820.16 543.011,1785.49Z" style="fill:rgb(180,180,180);"/>
                <path d="M692.626,1558.54C678.878,1544.37 669.543,1535.22 661.856,1515.47C658.602,1507.11 658.616,1490.51 658.616,1481.52C658.616,1427.23 667.352,1378.82 694.283,1330.67C700.514,1319.52 707.472,1307.46 717.855,1300.32C721.889,1297.55 726.664,1292.6 730.028,1289.13C751.876,1266.62 775.861,1266.77 803.004,1273.71C811.444,1275.86 825.401,1279.14 831.162,1286.8C866.315,1333.49 864.568,1486.77 833.431,1539.18C829.373,1546.01 823.575,1553.09 818.594,1559.19C770.905,1617.59 704.305,1586.15 668.073,1527.96" style="fill:rgb(180,180,180);"/>
                <path d="M1001.42,1576.26C979.199,1564.85 973.718,1538.51 964.992,1526.87C949.812,1506.62 932.724,1409.21 936.051,1383.03C938.259,1365.66 943.158,1345.09 947.471,1328.33C953.823,1303.65 988.546,1272.56 1016.62,1282.2C1035.67,1288.75 1057.4,1296.29 1073.63,1309.16C1085.06,1318.22 1093.27,1332.14 1102.28,1343.41C1134.83,1384.16 1155.58,1432.59 1142.34,1485.34C1138.26,1501.61 1134.92,1522.59 1123.85,1536.92C1099.24,1568.79 1077.11,1586.17 1034.14,1586.17C1015,1586.17 1024.18,1587.95 1001.42,1576.26Z" style="fill:rgb(180,180,180);"/>
                <path d="M1131.73,1750.46C1115.63,1739.8 1113.55,1735.37 1109.38,1727.75C1079.71,1673.56 1115.73,1595.95 1150.18,1554.62C1156.83,1546.64 1160.13,1539.39 1166.4,1531.55C1192.38,1499.04 1239.23,1496.69 1269.8,1519.93C1322.19,1559.76 1323.17,1656.59 1308.6,1714.66C1304.4,1731.39 1287.17,1746.68 1274.34,1756.19C1237.38,1783.57 1171.44,1776.73 1131.73,1750.46Z" style="fill:rgb(180,180,180);"/>
                <path d="M648.128,2008.77C578.257,1984.94 612.622,1880.64 626.625,1843.93C632.348,1828.92 649.627,1814.2 658.616,1800.06C667.361,1786.3 709.796,1757.51 721.659,1741.62C743.23,1712.72 773.239,1690.26 794.635,1661.6C800.572,1653.64 803.814,1644.02 812.156,1637.67C830.24,1623.92 857.662,1612.95 878.327,1607.67C888.171,1605.16 900.385,1608.41 909.458,1610.79C928.397,1615.76 950.594,1614.77 967.964,1623.88C1002.23,1641.85 1026.41,1684.87 1046.34,1716.22C1056.26,1731.83 1073.77,1743.73 1086.62,1756.97C1137.44,1809.34 1166.34,1831.67 1189.24,1900.11C1193.11,1911.66 1187.29,1925.12 1184.62,1935.49C1171.05,1988.22 1153.38,1991.28 1107.89,2020.96C1073.02,2043.72 957.102,2039.81 916.263,2029.38C873.353,2018.42 823.903,2040.91 780.947,2040.91C736.96,2040.91 694.797,2033.99 648.128,2008.77Z" style="fill:rgb(180,180,180);"/>
            </g>
            <g transform="matrix(0.448383,0,0,0.448383,75.7042,-135.531)">
                <g transform="matrix(0.590048,0,0,0.590048,472.072,365.101)">
                    <g transform="matrix(1,0,0,1,78.3881,238.988)">
                        <path d="M1311.55,1576.6C1311.82,1564.07 1310.82,1556.4 1308.55,1553.6C1305.88,1551.34 1302.15,1549.87 1297.35,1549.2C1297.08,1549.07 1292.88,1548.74 1284.75,1548.2L1275.55,1548.2C1267.28,1548.2 1260.42,1548.6 1254.95,1549.4C1241.35,1551.13 1230.95,1555 1223.75,1561C1213.22,1569.54 1207.95,1579.47 1207.95,1590.8C1207.95,1599.07 1209.08,1605.27 1211.35,1609.4C1214.02,1614.6 1218.42,1619.6 1224.55,1624.4C1230.02,1628.93 1240.55,1635.13 1256.15,1643C1265.48,1647.8 1272.35,1652.74 1276.75,1657.8C1280.35,1662.07 1282.15,1667.2 1282.15,1673.2C1282.15,1684.27 1273.95,1693.93 1257.55,1702.2C1252.88,1704.47 1247.62,1705.6 1241.75,1705.6C1227.48,1705.6 1215.55,1696.93 1205.95,1679.6L1205.95,1698.4C1205.95,1703.87 1210.15,1707.4 1218.55,1709C1226.15,1710.47 1233.42,1711.2 1240.35,1711.2C1253.28,1711.2 1265.22,1708.67 1276.15,1703.6C1288.68,1697.74 1297.68,1690 1303.15,1680.4C1305.02,1676.93 1305.95,1672.67 1305.95,1667.6C1305.95,1663.47 1305.28,1659.6 1303.95,1656C1301.95,1650.67 1296.88,1644.67 1288.75,1638C1283.15,1633.47 1273.28,1627.27 1259.15,1619.4C1246.48,1612.34 1237.95,1605.67 1233.55,1599.4C1231.42,1596.34 1230.35,1592.07 1230.35,1586.6C1230.35,1579.13 1233.35,1572.34 1239.35,1566.2C1247.22,1558.2 1258.02,1554.2 1271.75,1554.2C1275.88,1554.2 1279.95,1554.67 1283.95,1555.6C1290.75,1556.93 1296.95,1560 1302.55,1564.8C1307.35,1568.8 1310.35,1572.74 1311.55,1576.6Z" style="fill:white;fill-rule:nonzero;"/>
                    </g>
                    <g transform="matrix(1,0,0,1,78.3881,238.988)">
                        <path d="M1400.55,1699.6C1393.08,1703.87 1386.62,1706 1381.15,1706C1379.55,1706.13 1378.02,1706.2 1376.55,1706.2C1363.22,1706.2 1353.88,1700.27 1348.55,1688.4C1346.42,1683.47 1345.15,1677.6 1344.75,1670.8L1344.75,1653L1410.73,1653C1416.07,1652.47 1418.95,1649.4 1419.35,1643.8C1419.35,1636.6 1417.55,1627.93 1413.95,1617.8C1411.28,1610.2 1407.68,1603.57 1403.15,1597.9C1398.62,1592.24 1393.82,1588 1388.75,1585.2C1384.22,1582.67 1379.35,1581.4 1374.15,1581.4C1361.48,1581.4 1350.35,1587.47 1340.75,1599.6C1328.22,1615.47 1321.95,1633.47 1321.95,1653.6C1321.95,1668.27 1325.82,1680.87 1333.55,1691.4C1340.22,1700.74 1349.42,1706.6 1361.15,1709C1366.88,1710.2 1371.95,1710.8 1376.35,1710.8C1387.55,1710.8 1398.15,1707.54 1408.15,1701C1414.15,1697 1417.15,1693.93 1417.15,1691.8C1417.15,1690.87 1416.68,1690.4 1415.75,1690.4C1414.82,1690.4 1412.82,1691.47 1409.75,1693.6C1405.08,1696.8 1402.02,1698.8 1400.55,1699.6ZM1357.95,1592.8C1362.35,1589.47 1367.02,1587.8 1371.95,1587.8C1380.35,1587.8 1386.62,1592 1390.75,1600.4C1394.62,1608.27 1396.88,1618.93 1397.55,1632.4C1397.68,1637.07 1397.62,1640.34 1397.35,1642.2C1397.22,1643.13 1396.95,1643.93 1396.55,1644.6C1395.48,1646.34 1393.88,1647.47 1391.75,1648L1344.75,1648C1345.02,1629.6 1345.22,1619.74 1345.35,1618.4C1346.82,1606.67 1351.02,1598.13 1357.95,1592.8Z" style="fill:white;fill-rule:nonzero;"/>
                    </g>
                    <g transform="matrix(1,0,0,1,78.3881,238.988)">
                        <path d="M1525.75,1614.5C1524.82,1606.43 1522.22,1599.6 1517.95,1594C1513.28,1587.74 1507.15,1583.8 1499.55,1582.2C1496.75,1581.54 1493.55,1581.13 1489.95,1581C1479.68,1580.6 1470.02,1583.13 1460.95,1588.6C1457.75,1590.47 1454.75,1592.4 1451.95,1594.4C1446.48,1598.4 1442.02,1602.4 1438.55,1606.4C1436.68,1608.67 1435.75,1610.13 1435.75,1610.8C1435.75,1611.2 1435.88,1611.54 1436.15,1611.8C1437.23,1612.47 1440.11,1611.13 1444.8,1607.8C1449.1,1604.74 1453.32,1601.67 1457.48,1598.6C1462.84,1594.74 1467.33,1592.2 1470.95,1591C1473.77,1590.07 1476.72,1589.6 1479.8,1589.6C1483.43,1589.6 1487.11,1590.2 1490.87,1591.4C1500.26,1594.34 1504.95,1606.13 1504.95,1626.8C1504.95,1629.34 1504.88,1632.1 1504.75,1635.1C1504.61,1638.1 1504.55,1639.67 1504.55,1639.8C1504.55,1640.6 1504.21,1641 1503.54,1641C1502.34,1641 1500.46,1639.87 1497.91,1637.6C1493.62,1633.74 1488.19,1630.67 1481.62,1628.4C1477.2,1626.8 1472.64,1626 1467.95,1626C1461.38,1626 1455.55,1627.47 1450.46,1630.4C1436.52,1638.4 1429.55,1651.67 1429.55,1670.2C1429.55,1678.2 1431.02,1685.74 1433.95,1692.8C1435.95,1697.6 1438.75,1701.4 1442.35,1704.2C1446.75,1707.67 1452.35,1709.4 1459.15,1709.4C1464.08,1709.4 1468.95,1708.54 1473.75,1706.8C1478.02,1705.34 1481.88,1703.34 1485.35,1700.8C1492.15,1695.87 1498.68,1688.6 1504.95,1679L1504.95,1702.4C1505.35,1707.07 1507.88,1709.4 1512.55,1709.4L1527.15,1709.4L1527.15,1648.8C1527.15,1634 1526.68,1622.57 1525.75,1614.5ZM1500.17,1675.4C1491.4,1690.07 1481.57,1696.74 1470.68,1695.4C1459.66,1694.07 1453.55,1685.74 1452.35,1670.4C1451.68,1661.74 1452.68,1654 1455.34,1647.2C1456.4,1644.27 1458.46,1641.37 1461.51,1638.5C1464.57,1635.63 1467.56,1634 1470.48,1633.6C1475.4,1632.93 1480.64,1634.27 1486.22,1637.6C1489.54,1639.47 1493.1,1642.47 1496.88,1646.6C1500.67,1650.74 1503.16,1654.54 1504.35,1658C1504.75,1659.2 1504.95,1660.47 1504.95,1661.8C1504.95,1665.54 1503.36,1670.07 1500.17,1675.4Z" style="fill:white;fill-rule:nonzero;"/>
                    </g>
                    <g transform="matrix(1,0,0,1,78.3881,238.988)">
                        <path d="M1611.35,1581.8C1601.35,1581.8 1592.42,1586.93 1584.55,1597.2C1579.08,1604.27 1573.28,1614.6 1567.15,1628.2C1563.95,1635.27 1562.08,1638.67 1561.55,1638.4C1561.15,1638.13 1560.95,1636 1560.95,1631.98L1560.95,1589.63C1561.48,1584.81 1558.88,1582.2 1553.15,1581.8L1537.55,1581.8L1537.55,1709.6L1557.35,1709.6C1560.02,1708.54 1561.48,1706.54 1561.75,1703.6L1561.75,1656.4C1561.75,1652.93 1563.48,1647.93 1566.95,1641.4C1569.62,1636.07 1574.02,1628.2 1580.15,1617.8C1585.22,1610.34 1591.02,1603.34 1597.55,1596.8C1600.75,1593.74 1604.08,1592.2 1607.55,1592.2C1611.55,1592.2 1615.28,1594.27 1618.75,1598.4C1621.55,1601.74 1623.68,1605.67 1625.15,1610.2L1625.15,1590.6C1625.15,1584.74 1620.55,1581.8 1611.35,1581.8Z" style="fill:white;fill-rule:nonzero;"/>
                    </g>
                    <g transform="matrix(1,0,0,1,78.3881,238.988)">
                        <path d="M1717.75,1615.4C1718.55,1609 1718.95,1604.54 1718.95,1602C1718.68,1594.93 1716.55,1590.13 1712.55,1587.6C1705.48,1583.2 1697.28,1581 1687.95,1581C1679.55,1581 1671.62,1583.07 1664.15,1587.2C1645.62,1597.6 1633.55,1614.27 1627.95,1637.2C1626.35,1644.13 1625.55,1650.47 1625.55,1656.2C1625.55,1663.93 1627.02,1671.6 1629.95,1679.2C1635.82,1694.54 1645.22,1704.2 1658.15,1708.2C1662.68,1709.67 1667.55,1710.4 1672.75,1710.4C1680.75,1710.4 1688.68,1708.8 1696.55,1705.6C1704.42,1702.4 1710.82,1698.07 1715.75,1692.6C1717.35,1690.74 1718.15,1689.47 1718.15,1688.8C1718.15,1688.54 1718.02,1688.4 1717.75,1688.4C1716.95,1688.4 1714.95,1689.4 1711.75,1691.4C1706.82,1694.47 1703.02,1696.6 1700.35,1697.8C1695.95,1699.67 1691.35,1700.6 1686.55,1700.6C1678.02,1700.6 1670.55,1697.87 1664.15,1692.4C1654.02,1683.87 1648.95,1671.13 1648.95,1654.2C1648.95,1646.34 1650.08,1638.74 1652.35,1631.4C1655.55,1621.8 1659.95,1612.74 1665.55,1604.2C1673.28,1592.34 1681.55,1586.4 1690.35,1586.4C1698.22,1586.4 1705.28,1591.6 1711.55,1602C1715.02,1607.87 1717.08,1612.34 1717.75,1615.4Z" style="fill:white;fill-rule:nonzero;"/>
                    </g>
                    <g transform="matrix(1,0,0,1,78.3881,238.988)">
                        <path d="M1729.35,1536.8L1729.35,1709.2L1743.7,1709.2C1748.94,1709.2 1751.76,1706.27 1752.15,1700.4L1752.15,1657.4C1752.15,1651.67 1753.26,1645.34 1755.48,1638.4C1757.69,1631.47 1762.36,1623.4 1769.49,1614.2C1773.79,1608.47 1776.81,1604.74 1778.56,1603C1782.72,1598.74 1786.69,1596.54 1790.45,1596.4C1798.92,1596 1803.15,1603.27 1803.15,1618.2C1802.88,1635.13 1802.88,1663 1803.15,1701.8C1803.15,1706.47 1805.15,1708.93 1809.15,1709.2L1826.15,1709.2L1826.15,1638.6C1826.15,1633 1826.15,1630.87 1826.15,1632.2C1826.02,1623.27 1825.28,1615.54 1823.95,1609C1822.35,1601.8 1819.68,1595.67 1815.95,1590.6C1811.55,1584.74 1806.35,1581.8 1800.35,1581.8C1797.95,1581.8 1795.48,1582.27 1792.95,1583.2C1777.88,1589.2 1764.28,1606.07 1752.15,1633.8L1752.15,1545.8C1752.15,1540.2 1749.42,1537.2 1743.95,1536.8L1729.35,1536.8Z" style="fill:white;fill-rule:nonzero;"/>
                    </g>
                </g>
                <g transform="matrix(0.624031,0,0,0.624031,500.181,446.776)">
                    <path d="M937.95,1580.4C930.883,1562.93 912.816,1553.07 883.75,1550.8C876.683,1550.13 863.283,1549.8 843.55,1549.8C838.083,1550.2 835.35,1552.54 835.35,1556.8L835.35,1709.4L848.522,1709.4C850.095,1709.27 851.472,1709.07 852.653,1708.8C855.536,1707.87 857.502,1706.4 858.55,1704.4L858.55,1649.6C878.512,1649.6 893.585,1648.2 903.768,1645.4C909.798,1643.67 915.491,1640.8 920.85,1636.8C925.406,1633.47 929.627,1628.8 933.512,1622.8C938.737,1614.4 941.35,1605.8 941.35,1597C941.35,1591.4 940.216,1585.87 937.95,1580.4ZM898.75,1635.2C891.816,1639.87 882.616,1642.54 871.15,1643.2C866.35,1643.47 862.15,1643.67 858.55,1643.8L858.55,1565C858.016,1559.27 860.683,1556.13 866.55,1555.6C874.816,1555.6 881.216,1556.2 885.75,1557.4C895.083,1559.8 902.883,1564.74 909.15,1572.2C915.016,1579 917.95,1587.47 917.95,1597.6C917.95,1613.87 911.55,1626.4 898.75,1635.2Z" style="fill:white;fill-rule:nonzero;"/>
                    <path d="M1029.95,1699.6C1022.48,1703.87 1016.02,1706 1010.55,1706C1008.95,1706.13 1007.42,1706.2 1005.95,1706.2C992.616,1706.2 983.283,1700.27 977.95,1688.4C975.816,1683.47 974.55,1677.6 974.15,1670.8L974.15,1653L1040.13,1653C1045.47,1652.47 1048.35,1649.4 1048.75,1643.8C1048.75,1636.6 1046.95,1627.93 1043.35,1617.8C1040.68,1610.2 1037.08,1603.57 1032.55,1597.9C1028.02,1592.24 1023.22,1588 1018.15,1585.2C1013.62,1582.67 1008.75,1581.4 1003.55,1581.4C990.883,1581.4 979.75,1587.47 970.15,1599.6C957.616,1615.47 951.35,1633.47 951.35,1653.6C951.35,1668.27 955.216,1680.87 962.95,1691.4C969.616,1700.74 978.816,1706.6 990.55,1709C996.283,1710.2 1001.35,1710.8 1005.75,1710.8C1016.95,1710.8 1027.55,1707.54 1037.55,1701C1043.55,1697 1046.55,1693.93 1046.55,1691.8C1046.55,1690.87 1046.08,1690.4 1045.15,1690.4C1044.22,1690.4 1042.22,1691.47 1039.15,1693.6C1034.48,1696.8 1031.42,1698.8 1029.95,1699.6ZM987.35,1592.8C991.75,1589.47 996.416,1587.8 1001.35,1587.8C1009.75,1587.8 1016.02,1592 1020.15,1600.4C1024.02,1608.27 1026.28,1618.93 1026.95,1632.4C1027.08,1637.07 1027.02,1640.34 1026.75,1642.2C1026.62,1643.13 1026.35,1643.93 1025.95,1644.6C1024.88,1646.34 1023.28,1647.47 1021.15,1648L974.15,1648C974.416,1629.6 974.616,1619.74 974.75,1618.4C976.216,1606.67 980.416,1598.13 987.35,1592.8Z" style="fill:white;fill-rule:nonzero;"/>
                    <path d="M1082.55,1548.2L1097.49,1548.2C1102.6,1548.2 1105.36,1550.35 1105.75,1554.63L1105.75,1584.57C1133.73,1586.45 1149.73,1587.92 1153.74,1588.99C1154.81,1589.53 1155.35,1589.99 1155.35,1590.4C1155.35,1591.2 1153.69,1591.6 1150.37,1591.6L1111.73,1591.6C1108.01,1591.07 1106.01,1592.54 1105.75,1596L1105.75,1670.8C1105.75,1679.34 1106.08,1685.2 1106.75,1688.4C1108.21,1695.2 1111.46,1699.6 1116.51,1701.6C1119.3,1702.8 1122.08,1703.4 1124.87,1703.4C1127.93,1703.4 1132.05,1702.45 1137.23,1700.56C1138.29,1700.15 1141.47,1698.39 1146.78,1695.27C1151.7,1692.29 1154.29,1690.8 1154.55,1690.8C1155.22,1690.8 1155.55,1691.07 1155.55,1691.61C1155.55,1692.42 1155.02,1693.3 1153.95,1694.24C1150.74,1697.6 1145.72,1700.9 1138.9,1704.14C1130.35,1708.45 1122.33,1710.6 1114.84,1710.6C1107.49,1710.6 1101.13,1708.13 1095.79,1703.19C1086.43,1694.51 1082.02,1683.89 1082.55,1671.34L1082.55,1598.41C1083.22,1594.14 1081.63,1591.87 1077.79,1591.6L1058.95,1591.6C1058.82,1585.6 1060.48,1582.4 1063.95,1582L1082.55,1582L1082.55,1548.2Z" style="fill:white;fill-rule:nonzero;"/>
                </g>
            </g>
        </g>
    </g>
</svg>
