<?xml version="1.0" encoding="UTF-8" standalone="no"?>
<!DOCTYPE svg PUBLIC "-//W3C//DTD SVG 1.1//EN" "http://www.w3.org/Graphics/SVG/1.1/DTD/svg11.dtd">
<svg width="100%" height="100%" viewBox="0 0 415 393" version="1.1" xmlns="http://www.w3.org/2000/svg" xmlns:xlink="http://www.w3.org/1999/xlink" xml:space="preserve" xmlns:serif="http://www.serif.com/" style="fill-rule:evenodd;clip-rule:evenodd;stroke-linejoin:round;stroke-miterlimit:2;">
    <g transform="matrix(1,0,0,1,-2198.87,-1482.48)">
        <g transform="matrix(0.495217,0,0,0.509089,1961.73,836.139)">
            <path d="M543.011,1785.49C523.985,1771.65 531.151,1776.25 523.3,1765.46C517.066,1756.9 514.927,1744.35 510.316,1734.68C484.196,1679.9 466.823,1618.72 489.041,1558.43C492.527,1548.97 495.482,1539.36 499.856,1530.49C502.983,1524.15 508.413,1517.99 512.663,1512.3C522.84,1498.66 555.613,1480.28 573.437,1489.16C589.683,1497.25 642.253,1561.07 647.978,1574.64C660.815,1605.06 692.395,1689.84 684.427,1721.59C670.443,1777.32 590.696,1820.16 543.011,1785.49Z" style="fill:white;"/>
        </g>
        <g transform="matrix(0.495217,0,0,0.509089,1961.73,836.139)">
            <path d="M692.626,1558.54C678.878,1544.37 669.543,1535.22 661.856,1515.47C658.602,1507.11 658.616,1490.51 658.616,1481.52C658.616,1427.23 667.352,1378.82 694.283,1330.67C700.514,1319.52 707.472,1307.46 717.855,1300.32C721.889,1297.55 726.664,1292.6 730.028,1289.13C751.876,1266.62 775.861,1266.77 803.004,1273.71C811.444,1275.86 825.401,1279.14 831.162,1286.8C866.315,1333.49 864.568,1486.77 833.431,1539.18C829.373,1546.01 823.575,1553.09 818.594,1559.19C770.905,1617.59 704.305,1586.15 668.073,1527.96" style="fill:white;"/>
        </g>
        <g transform="matrix(0.495217,0,0,0.509089,1961.73,836.139)">
            <path d="M1001.42,1576.26C979.199,1564.85 973.718,1538.51 964.992,1526.87C949.812,1506.62 932.724,1409.21 936.051,1383.03C938.259,1365.66 943.158,1345.09 947.471,1328.33C953.823,1303.65 988.546,1272.56 1016.62,1282.2C1035.67,1288.75 1057.4,1296.29 1073.63,1309.16C1085.06,1318.22 1093.27,1332.14 1102.28,1343.41C1134.83,1384.16 1155.58,1432.59 1142.34,1485.34C1138.26,1501.61 1134.92,1522.59 1123.85,1536.92C1099.24,1568.79 1077.11,1586.17 1034.14,1586.17C1015,1586.17 1024.18,1587.95 1001.42,1576.26Z" style="fill:white;"/>
        </g>
        <g transform="matrix(0.495217,0,0,0.509089,1961.73,836.139)">
            <path d="M1131.73,1750.46C1115.63,1739.8 1113.55,1735.37 1109.38,1727.75C1079.71,1673.56 1115.73,1595.95 1150.18,1554.62C1156.83,1546.64 1160.13,1539.39 1166.4,1531.55C1192.38,1499.04 1239.23,1496.69 1269.8,1519.93C1322.19,1559.76 1323.17,1656.59 1308.6,1714.66C1304.4,1731.39 1287.17,1746.68 1274.34,1756.19C1237.38,1783.57 1171.44,1776.73 1131.73,1750.46Z" style="fill:white;"/>
        </g>
        <g transform="matrix(0.495217,0,0,0.509089,1961.73,836.139)">
            <path d="M648.128,2008.77C578.257,1984.94 612.622,1880.64 626.625,1843.93C632.348,1828.92 649.627,1814.2 658.616,1800.06C667.361,1786.3 709.796,1757.51 721.659,1741.62C743.23,1712.72 773.239,1690.26 794.635,1661.6C800.572,1653.64 803.814,1644.02 812.156,1637.67C830.24,1623.92 857.662,1612.95 878.327,1607.67C888.171,1605.16 900.385,1608.41 909.458,1610.79C928.397,1615.76 950.594,1614.77 967.964,1623.88C1002.23,1641.85 1026.41,1684.87 1046.34,1716.22C1056.26,1731.83 1073.77,1743.73 1086.62,1756.97C1137.44,1809.34 1166.34,1831.67 1189.24,1900.11C1193.11,1911.66 1187.29,1925.12 1184.62,1935.49C1171.05,1988.22 1153.38,1991.28 1107.89,2020.96C1073.02,2043.72 957.102,2039.81 916.263,2029.38C873.353,2018.42 823.903,2040.91 780.947,2040.91C736.96,2040.91 694.797,2033.99 648.128,2008.77Z" style="fill:white;"/>
        </g>
    </g>
</svg>
